<svg xmlns="http://www.w3.org/2000/svg" viewBox="0 0 122.34 178.36" xmlns:xlink="http://www.w3.org/1999/xlink"><path d="M83.5,78.05c-2.66-3.86-12-5.5-12-5.5s-1.65-4.72-1.16-8.06l-9,1s-.06.27-.15.76v-.76L54,64.07l-1.92.42c.5,3.34-1.16,8.06-1.16,8.06s-9.38,1.64-12,5.5S30.63,98.42,29.63,132c0,0,.42,5.88,5.24,5.88s6.32-3.24,6.32-5.88l3.9,41.52s-6.79-1.57-6.5,4.87H59.92l1.22-47s1.28,47,1.28,47H83.75c.3-6.44-6.49-4.87-6.49-4.87L81.16,132c0,2.64,1.49,5.88,6.31,5.88S92.71,132,92.71,132C91.71,98.42,86.17,81.92,83.5,78.05Z" style="fill: #f9e6cc"/>\r\n<path d="M83.5,78.05c-2.66-3.86-12-5.5-12-5.5s-1.65-4.72-1.16-8.06l-9,1s-.06.27-.15.76v-.76L54,64.07l-1.92.42c.5,3.34-1.16,8.06-1.16,8.06s-9.38,1.64-12,5.5S30.63,98.42,29.63,132c0,0,.42,5.88,5.24,5.88s6.32-3.24,6.32-5.88l3.9,41.52s-6.79-1.57-6.5,4.87H59.92l1.22-47.05,1.29,47.05H83.75c.3-6.44-6.49-4.87-6.49-4.87L81.16,132c0,2.64,1.49,5.88,6.31,5.88S92.71,132,92.71,132C91.71,98.42,86.17,81.92,83.5,78.05Z" style="fill: #804b3c;opacity: 0.1"/>\r\n<path d="M83.5,78.05c-2.66-3.87-12-5.5-12-5.5s-1.65-4.72-1.16-8.06l-9-2s-.06,3.27-.15,3.76V62.52L54,64.07l0,4.54L61.17,88l0,43.21s1.29,47.14,1.29,47.14H83.75c.3-6.43-6.49-4.86-6.49-4.86L81.16,132c0,2.64,1.49,5.88,6.31,5.88S92.71,132,92.71,132C91.71,98.42,86.17,81.91,83.5,78.05Z" style="fill: #804b3c;opacity: 0.1"/>\r\n<path d="M80.38,125.11H41.89l-.7,6.86c11.54,0,19.72,8.11,19.72,8.11h.45S69.61,132,81.15,132Z" style="fill: #d5d5d5"/>\r\n<path d="M80.38,125.11H61.13v15h.23S69.61,132,81.15,132Z" style="opacity: 0.1"/>\r\n<path d="M81.07629,131.97232l-.67749-6.63562a4.32455,4.32455,0,0,0,.67749-3.22211s-13.81757,1.84326-19.94482,1.84375c-6.12732-.00049-19.94482-1.84375-19.94482-1.84375a4.32455,4.32455,0,0,0,.67749,3.22211l-.67749,6.63562L40.918,151.41666s6.16669,2.33331,10.625,2.625a26.96674,26.96674,0,0,0,9.20831-1.375l.38013-12.493.38007,12.493a26.96689,26.96689,0,0,0,9.20837,1.375c4.45831-.29169,10.625-2.625,10.625-2.625Z" style="fill: #f0f0f0"/>
<g style="opacity: 0.1">
<path d="M72.81229,125.67784c.12461-.42462.26476-.83382.34369-1.2369.07962-.41022.05993-.80213-.17324-.80018-.18349-.08651-.45179.28047-.61613.64851-.17753.3737-.31046.78487-.471,1.19772a3.74084,3.74084,0,0,1,.10944-1.32888,1.88949,1.88949,0,0,1,.28887-.65563.787.787,0,0,1,.79335-.35036.73288.73288,0,0,1,.56977.67559,1.67919,1.67919,0,0,1-.13342.72A3.57441,3.57441,0,0,1,72.81229,125.67784Z"/>
</g>
<g style="opacity: 0.1">
<path d="M78.979,125.11459c.12462-.42462.26476-.83382.34369-1.2369.07962-.41022.05993-.80213-.17324-.80018-.18349-.08651-.45179.28047-.61612.64851-.17753.3737-.31046.78487-.471,1.19772a3.74086,3.74086,0,0,1,.10944-1.32888,1.88938,1.88938,0,0,1,.28887-.65563.787.787,0,0,1,.79335-.35036.73288.73288,0,0,1,.56977.67559,1.67919,1.67919,0,0,1-.13342.72A3.57442,3.57442,0,0,1,78.979,125.11459Z"/>
</g>
<g style="opacity: 0.1">
<path d="M66.89489,126.14813c.12461-.42462.26476-.83382.34369-1.2369.07962-.41022.05993-.80213-.17324-.80018-.18349-.08651-.45179.28048-.61613.64851-.17752.3737-.31046.78486-.471,1.19772a3.74084,3.74084,0,0,1,.10944-1.32888,1.88949,1.88949,0,0,1,.28887-.65563.787.787,0,0,1,.79336-.35036.73287.73287,0,0,1,.56977.67559,1.67914,1.67914,0,0,1-.13342.72A3.57442,3.57442,0,0,1,66.89489,126.14813Z"/>
</g>
<g style="opacity: 0.1">
<path d="M42.33469,125.33669c1.55969.20308,3.12456.35715,4.6905.48874,1.56442.145,3.13034.271,4.69816.36214,3.13423.196,6.27261.32131,9.41082.30837v.4994l-.00543,0v-.49945c1.56886-.003,3.13838-.015,4.70694-.07573,1.56915-.0463,3.13583-.14748,4.70381-.23349,1.56781-.09111,3.13379-.21648,4.69814-.362,1.566-.13133,3.13085-.28514,4.69058-.488-3.09517.56855-6.2226.96219-9.36,1.2335-3.13747.27749-6.28817.39759-9.43949.42518v-.49945l.00543,0v.49939c-3.15129-.02885-6.302-.14722-9.43942-.426C48.55734,126.29829,45.43,125.90434,42.33469,125.33669Z"/>
</g>
<path d="M61.31035,125.40884c-.00549-.00543-.00549-.01392-.0116-.01886a.28125.28125,0,0,0-.3291,0c-.0061.00494-.0061.01343-.0116.01886-.85767.65906-4.72,3.743-3.84241,5.16083a.5837.5837,0,0,0,.50293.30176l.03076-.001c.78235-.03992,1.99475-1.96265,2.83649-3.48676a38.81218,38.81218,0,0,0-.9903,8.65277l.499-.03125a41.72242,41.72242,0,0,1,1.13971-9.25958,41.71266,41.71266,0,0,1,1.13959,9.25958l.499.03125a38.81218,38.81218,0,0,0-.9903-8.65277c.84174,1.52411,2.05414,3.44684,2.83649,3.48676l.03027.001a.58446.58446,0,0,0,.50342-.30176C66.03032,129.15189,62.168,126.0679,61.31035,125.40884Zm-3.6864,4.96259c-.01562,0-.042.001-.0835-.06543-.40186-.64941,1.22217-2.4082,2.84668-3.791C59.33489,128.50229,58.11467,130.346,57.624,130.37143Zm7.103-.06543c-.04.06641-.06592.06543-.08252.06543-.49854-.02539-1.70166-1.84277-2.76514-3.8584C63.50432,127.89682,65.1303,129.65561,64.727,130.306Z" style="fill: #262626"/>
<g style="opacity: 0.1">
<path d="M49.45062,125.67784a3.57442,3.57442,0,0,1-.71136-1.13015,1.67919,1.67919,0,0,1-.13342-.72.73288.73288,0,0,1,.56977-.67559.787.787,0,0,1,.79335.35036,1.88942,1.88942,0,0,1,.28887.65563,3.74088,3.74088,0,0,1,.10945,1.32888c-.16054-.41286-.29347-.824-.471-1.19772-.16434-.368-.43264-.735-.61613-.64851-.23316-.00195-.25286.39-.17324.80018C49.18586,124.844,49.326,125.25322,49.45062,125.67784Z"/>
</g>
<g style="opacity: 0.1">
<path d="M43.284,125.11459a3.57444,3.57444,0,0,1-.71136-1.13015,1.67918,1.67918,0,0,1-.13341-.72.73287.73287,0,0,1,.56977-.67559.787.787,0,0,1,.79335.35036,1.88947,1.88947,0,0,1,.28887.65563,3.74091,3.74091,0,0,1,.10944,1.32888c-.16054-.41286-.29347-.824-.471-1.19772-.16434-.368-.43264-.735-.61613-.64851-.23316-.00195-.25286.39-.17324.80018C43.0192,124.28077,43.15934,124.69,43.284,125.11459Z"/>
</g>
<g style="opacity: 0.1">
<path d="M55.368,126.14813a3.57442,3.57442,0,0,1-.71136-1.13015,1.67916,1.67916,0,0,1-.13342-.72.73287.73287,0,0,1,.56977-.67559.787.787,0,0,1,.79336.35036,1.88942,1.88942,0,0,1,.28887.65563,3.74084,3.74084,0,0,1,.10944,1.32888c-.16054-.41286-.29347-.824-.471-1.19772-.16434-.368-.43264-.735-.61613-.64851-.23316-.00195-.25286.39-.17324.80018C55.10325,125.3143,55.24339,125.72351,55.368,126.14813Z"/>
</g>
<path d="M68.25188,152.16568s-.00421,1.11926-.396,1.24951-.1095-.81433-.1095-.81433a10.0422,10.0422,0,0,0-.82642,1.28967c.7182.09137,1.46729.15668,2.228.17676a13.00264,13.00264,0,0,1-.68964-1.14722A7.06021,7.06021,0,0,1,68.25188,152.16568Z" style="fill: #262626"/>
<path d="M61.92883,142.8154c.25476.00549.59-.257,1.16016-.56561s.375-.15936.53156.068-.31226.20294-.8371.33118-.44067.52533-.45093.67743-.3551.359-.3551.359a1.99957,1.99957,0,0,0,1.043.41272c.4447-.03809.40552-.43774.94049-.65875s.35468.02625.469.32288-.71051.54047-1.43994.555-.78943.0376-.54559.551a1.60817,1.60817,0,0,0,1.83765.41748c.42023-.28046.42126-.81415,1.02173-1.28253a.75782.75782,0,0,0,.19189-1.05157,2.74966,2.74966,0,0,0-2.31085-1.16833c-.59454.007-1.42883-.01215-1.42883-.01215.21515-.157,1.384-.04462,1.66071-.40308s-.92108.29578-1.64832-.81635a4.30835,4.30835,0,0,1-.73022-2.133,3.1304,3.1304,0,0,0,1.77905,2.29163,3.04671,3.04671,0,0,1-.08643-1.122c.15063.918,1.3045,1.60052,1.3045,1.60052-.10461-.15222.52759-1.55127.52759-1.55127a6.65168,6.65168,0,0,0-.04242,1.26062c.05908.45123.683.75885.683.75885a2.80312,2.80312,0,0,0-.10773-1.11389c-.18372-.59576.25165-.95612.31836-1.85577s-.82031-2.06866-1.21045-1.82941-.19305,1.64453-.03931,2.22223-.46619.81665-.83069.70532.11493-2.56244-.42413-2.82867a2.68879,2.68879,0,0,1-.87787-.72815c-.3855.43.44238,1.14777.64618,1.67657s-.52771,1.6106-.78015,1.73749-.24152-.455.13953-1.13507-.4223-1.21484-.4223-1.21484.30414.31238-.34851.712-.24506-1.17938-.43927-1.50452-1.47888.03674-1.47888.03674a2.87431,2.87431,0,0,1,1.048.57373c.23419.30963-.60333,1.95074-.264,2.17548s.94342.42145.878.66888-.26947-.16278-.76416-.13507-.38586.60791-.38586.60791c.1225.41589.95.62433,1.24268.686l.02863-.94043.029.95282.05225.00977s.51013-.28552.68951-.05841-.55994.21582-.55994.21582a3.26095,3.26095,0,0,0-.159.583l.01782.58618c.00549.01617.00714.03473.01385.05C61.404,142.94363,61.674,142.80991,61.92883,142.8154Z" style="fill: #262626"/>
<path d="M43.42352,129.202c1.07159.14148.38959,1.96979.38959,1.96979a2.6545,2.6545,0,0,0,.777-3.56409c-.4729-.38672-1.67029.10376-1.67029.10376a1.52675,1.52675,0,0,0-1.27545-.22192l-.30994,3.03558a4.693,4.693,0,0,0,1.7489.76227S42.35192,129.06046,43.42352,129.202Z" style="fill: #262626"/>
<path d="M44.46331,135.05789c.20062-1.37683-.465-2.38672-.92938-2.46893a5.09327,5.09327,0,0,1-.56183,1.97729c-.42053.5069-.17755-.24261-.02283-.8183a2.26952,2.26952,0,0,0-.1897-1.49927c-.07239.002-1.08264.08447-1.57758.05841l-.0152,1.10236a1.69673,1.69673,0,0,0,.37579-.23169c.85663-.70953,1.02277-.46655.88422-.29132a9.66956,9.66956,0,0,1-1.26654.99579l-.02881,2.08362c.508.30176.73785.492,1.26624.44476C43.01757,136.35526,44.26269,136.43478,44.46331,135.05789Z" style="fill: #262626"/>
<path d="M43.28608,131.70073c.07761-.25535.63424-.11292.89165-.02488a1.66576,1.66576,0,0,1,.917,1.6123c.0182,1.066-.16064,2.65176.65671,3.39077a1.96968,1.96968,0,0,1-.88583-1.47985c-.14172-1.08162.06154-1.792-.25426-2.25928S43.16932,132.08489,43.28608,131.70073Z" style="fill: #262626"/>
<path d="M45.24081,132.08422a9.47887,9.47887,0,0,0,.98241.37254c.53048.16613,1.65884.05846,1.89316.17572a1.424,1.424,0,0,1,.45328,1.96805c-.6321,1.04608-1.70207,1.533-2.24158.75769a10.813,10.813,0,0,1-1.01455-2.38091s.80223,1.05367.97074.52522S45.24081,132.08422,45.24081,132.08422Z" style="fill: #262626"/>
<path d="M44.88574,131.637s1.59383.8697,2.39684.52352a2.18911,2.18911,0,0,0,1.27242-2.65422,2.10093,2.10093,0,0,0-2.25064-1.56557c-.7908.21252-.82423,1.299-1.12595,1.90737a8.6528,8.6528,0,0,0-.56071,1.32024c.017.03762,1.51314-.88021,1.6307-.37879S44.88574,131.637,44.88574,131.637Z" style="fill: #262626"/>
<circle cx="45.92522" cy="136.31581" r="0.24367" transform="translate(-3.78416 1.33395) rotate(-1.59826)" style="fill: #262626"/>
<circle cx="45.57936" cy="135.48123" r="0.24367" transform="translate(-3.76101 1.32397) rotate(-1.59826)" style="fill: #262626"/>
<circle cx="45.30967" cy="136.87032" r="0.24367" transform="translate(-3.79986 1.31699) rotate(-1.59826)" style="fill: #262626"/>
<circle cx="44.65459" cy="135.70326" r="0.24367" transform="translate(-3.76757 1.29827) rotate(-1.59826)" style="fill: #262626"/>
<circle cx="44.91623" cy="136.34397" r="0.24367" transform="translate(-3.78533 1.30581) rotate(-1.59826)" style="fill: #262626"/>
<path d="M74.95271,131.37141c-.00049.04113-1.49123-.2149-1.93661.83831s.28344,1.82988,1.19884,1.53287c0,0,.71743.53947,1.10273.363a1.84148,1.84148,0,0,0,.10451-2.5284s.13659,1.34681-.60742,1.25358S74.95271,131.37141,74.95271,131.37141Z" style="fill: #262626"/>
<path d="M74.77111,131.12583a4.41115,4.41115,0,0,0-1.02323.11423,1.00817,1.00817,0,0,1-.67813.03605c-.19094-.0557-.29165-.53908-.29165-.53908s-.8309-.54506-.43061-1.08864a1.26527,1.26527,0,0,1,1.90319.18375c.45028.62663.60444.49275.54226.35079a6.26827,6.26827,0,0,0-.87935-1.09573.75251.75251,0,0,1,.33832-1.13948c.56563-.13766.7341-.28112,1.14041-.13507s1.25591.31135,1.14873,1.27062-.73122,1.52013-1.05734,1.49378a3.534,3.534,0,0,0-.02978-1.42571c-.19322-.41406-.1618.13165-.159.54518a1.57451,1.57451,0,0,1-.39063.97289c-.06365-.01857-1.20141-.41926-1.2416-.32093S75.02444,131.11741,74.77111,131.12583Z" style="fill: #262626"/>
<path d="M75.16137,131.12961c.00724.185.40582.18717.594.17329a1.15558,1.15558,0,0,0,.89859-.921c.19943-.71224.35791-1.80788,1.03624-2.16029a1.36642,1.36642,0,0,0-.8544.83759c-.28507.701-.27341,1.21344-.56743,1.47161S75.15048,130.85129,75.16137,131.12961Z" style="fill: #262626"/>
<path d="M76.54059,131.21554a6.57573,6.57573,0,0,1,.72475-.07748c.3852-.01833,1.12356.2521,1.30141.21456a.98787.98787,0,0,0,.64985-1.2412c-.2405-.81306-.87307-1.32777-1.37131-.90219a7.50121,7.50121,0,0,0-1.099,1.41971s.72345-.56625.74373-.182S76.54059,131.21554,76.54059,131.21554Z" style="fill: #262626"/>
<path d="M76.22376,131.45329s1.2224-.30376,1.70053.0696a1.51864,1.51864,0,0,1,.38781,2.00478,1.45746,1.45746,0,0,1-1.78541.65542c-.49341-.28151-.325-1.01656-.42067-1.47783a6.00266,6.00266,0,0,1-.14444-.98452c.018-.02226.86092.85648,1.02788.54061S76.22376,131.45329,76.22376,131.45329Z" style="fill: #262626"/>
<circle cx="77.74309" cy="128.49581" r="0.16904" transform="matrix(0.28005, -0.95999, 0.95999, 0.28005, -67.38287, 167.14314)" style="fill: #262626"/>
<circle cx="77.3644" cy="128.99518" r="0.16904" transform="translate(-68.1349 167.13913) rotate(-73.73695)" style="fill: #262626"/>
<circle cx="77.42736" cy="128.01556" r="0.16904" transform="translate(-67.14915 166.49429) rotate(-73.73695)" style="fill: #262626"/>
<circle cx="76.78276" cy="128.68376" r="0.16904" transform="translate(-68.25469 166.35655) rotate(-73.73695)" style="fill: #262626"/>
<circle cx="77.07088" cy="128.29971" r="0.16904" transform="matrix(0.28005, -0.95999, 0.95999, 0.28005, -67.67858, 166.35664)" style="fill: #262626"/>
<path d="M67.7857,150.5183c.0409-.0166-.79875-1.4056.079-2.263s1.9391-.43354,2.0009.5973c0,0,.81993.50544.7945.95949a1.976,1.976,0,0,1-2.485,1.09468s1.399-.391,1.01445-1.0978S67.7857,150.5183,67.7857,150.5183Z" style="fill: #262626"/>
<path d="M67.46924,150.43307a4.73338,4.73338,0,0,1-.28665-1.067,1.08181,1.08181,0,0,0-.22958-.69158c-.13043-.16894-.65278-.08023-.65278-.08023s-.87-.61661-1.25622-.00381a1.35769,1.35769,0,0,0,.929,1.82936c.80237.20441.729.41086.56283.40433a6.72617,6.72617,0,0,1-1.43906-.44933c-.26245-.15442-1.08987.16528-1.00585.78428s.00668.84348.31171,1.19219.80293,1.13273,1.71928.64995,1.23225-1.32588,1.07819-1.64136a3.79213,3.79213,0,0,1-1.436.52864c-.48933-.03085.06815-.2132.48235-.37241s.86241-.715.81894-.77128-.8894-1.036-.8069-1.11469S67.56,150.68944,67.46924,150.43307Z" style="fill: #262626"/>
<path d="M67.46349,152.6055a1.24017,1.24017,0,0,0,.56818-1.25848c-.05988-.19342-.21814-.59076-.40582-.52557-.28229.09814-.02185.94568-.16461,1.34052s-.65924.58386-1.24792,1.14325a1.69223,1.69223,0,0,0-.33319.43463c.05591.00934.11481.01733.17133.02643A8.051,8.051,0,0,1,67.46349,152.6055Z" style="fill: #262626"/>
<path d="M68.36532,151.756s.17531,1.34017.73556,1.6716a1.62958,1.62958,0,0,0,2.1547-.39777,1.56393,1.56393,0,0,0-.0445-2.04036c-.47448-.38266-1.14286.07345-1.64114.15855a6.44115,6.44115,0,0,0-1.04013.2413c-.01519.02671,1.19282.52462.94266.81514S68.36532,151.756,68.36532,151.756Z" style="fill: #262626"/>
<path d="M66.24554,153.71475a.16969.16969,0,0,0-.04285.07477c.10724.01666.21289.03406.32208.04962a.17149.17149,0,0,0-.02484-.09167A.18136.18136,0,0,0,66.24554,153.71475Z" style="fill: #262626"/>
<circle cx="65.81745" cy="153.39921" r="0.18139" transform="translate(-80.02494 72.20037) rotate(-37.67057)" style="fill: #262626"/>
<path d="M45.03588,142.93843a1.31406,1.31406,0,0,0,.29363-1.8436c-.7531-1.06473-1.04308-1.27427-1.16944-1.67471a8.66463,8.66463,0,0,1-.20064-1.31638,1.13045,1.13045,0,0,0,.72237.34836c.4209.0127,1.14547-.44537,1.83467.78855a2.65949,2.65949,0,0,1,.1892,2.30174s-.32723-2.03287-.92964-1.46847.72014.55115.53281,1.76475A1.18166,1.18166,0,0,1,45.03588,142.93843Z" style="fill: #262626"/>
<path d="M46.4799,142.26194a.79478.79478,0,0,0,.28677-.01472c.17575-.03649,1.62179-.49053,2.10585.02426s.20086.5209-.032.4344-1.12957-.53353-1.58167-.27532a1.79274,1.79274,0,0,1,1.124.88236c.33774.7032.96469,1.77937,2.194,1.17963s.29414-1.71938.01526-2.11873S48.861,140.97894,46.4799,142.26194Z" style="fill: #262626"/>
<path d="M46.80574,141.83664a2.35461,2.35461,0,0,0,.70137-2.13791c-.11468-.4661-.22266-1.73219.51479-2.19926a8.71279,8.71279,0,0,0,1.46562-1.263,1.45516,1.45516,0,0,1,.41194,1.11133,4.404,4.404,0,0,1-.60335,2.539,10.34849,10.34849,0,0,1-1.25163.97944s1.12662-1.41916.43307-1.64392-.18571.88668-.51986,1.5608A2.71172,2.71172,0,0,1,46.80574,141.83664Z" style="fill: #262626"/>
<path d="M48.17788,141.29048a5.73614,5.73614,0,0,1,2.79688-2.08727c1.71125-.48592,2.53413-.22691,3.508,1.37355a1.19975,1.19975,0,0,0-.71158.35318,3.10737,3.10737,0,0,1-1.89131.92788c-.52957-.09971-1.38171-.74075-2.05891-.59364a10.9175,10.9175,0,0,1-1.44121.19194,2.56705,2.56705,0,0,1,1.4622-.51323c.90366-.037,2.16511.54822,2.35388-.19686s-.41115-.6711-.82788-.38967a2.96737,2.96737,0,0,1-1.17174.33915s.44894-.30392.28568-.49654S49.315,140.25685,48.17788,141.29048Z" style="fill: #262626"/>
<path d="M73.03872,131.66935a.85322.85322,0,0,1-1.09652-.51667,6.03851,6.03851,0,0,0-.47085-1.23988,5.626,5.626,0,0,0-.6329-.589.734.734,0,0,1-.07727.515c-.14711.23047-.65786.4517-.24787,1.27272a1.72682,1.72682,0,0,0,1.16575.94326s-.971-.919-.4479-1.0358.03235.58793.752.93124A.76726.76726,0,0,0,73.03872,131.66935Z" style="fill: #262626"/>
<path d="M54.47951,146.1513c-.05056-.026,1.18777-1.71108.16081-2.913s-2.438-.78095-2.63669.53462c0,0-1.11066.55357-1.13063,1.13913a2.54585,2.54585,0,0,0,3.06183,1.69255s-1.74982-.66383-1.17452-1.52618S54.47951,146.1513,54.47951,146.1513Z" style="fill: #262626"/>
<path d="M54.89545,146.0786a6.09841,6.09841,0,0,0,.49142-1.33588,1.39379,1.39379,0,0,1,.37471-.86082c.18694-.20166.84691-.02732.84691-.02732s1.18773-.69043,1.61238.14065a1.74923,1.74923,0,0,1-1.404,2.23974c-1.05325.16934-.983.44274-.769.45362a8.66589,8.66589,0,0,0,1.89861-.40985c.35466-.16773,1.37933.33835,1.19981,1.12289s-.10629,1.08155-.5381,1.49366-1.16152,1.36046-2.28142.63481-1.42757-1.84407-1.19335-2.231a4.88571,4.88571,0,0,0,1.78134.84469c.63146.0171-.06274-.28147-.57579-.53374a2.17676,2.17676,0,0,1-.96148-1.08456c.06231-.06722,1.26127-1.22634,1.16453-1.33685S54.74922,146.397,54.89545,146.0786Z" style="fill: #262626"/>
<path d="M54.64947,146.55882c-.23323-.10544-.48237.38608-.58158.6274a1.59758,1.59758,0,0,0,.58325,1.68059c.75739.687,2.0142,1.56038,2.03055,2.61706a1.88907,1.88907,0,0,0-.50743-1.57438c-.69056-.78594-1.3314-1.08836-1.46885-1.61154S55.00037,146.71744,54.64947,146.55882Z" style="fill: #262626"/>
<path d="M53.69044,148.21114a9.09094,9.09094,0,0,1-.35231.94408c-.21551.48764-1.00643,1.23344-1.07,1.47657a1.36572,1.36572,0,0,0,1.133,1.571c1.15408.20533,2.18165-.2586,1.96347-1.13784a10.37041,10.37041,0,0,0-1.076-2.2368s.25287,1.24468-.2348,1.03218S53.69044,148.21114,53.69044,148.21114Z" style="fill: #262626"/>
<path d="M53.59236,147.67236s-.38021,1.69935-1.1375,2.05972a2.09952,2.09952,0,0,1-2.71875-.76,2.01494,2.01494,0,0,1,.29348-2.613c.65317-.43605,1.458.22665,2.08748.39358a8.29867,8.29867,0,0,1,1.3067.43013c.0164.036-1.59137.535-1.304.93674S53.59236,147.67236,53.59236,147.67236Z" style="fill: #262626"/>
<circle cx="56.30996" cy="151.37968" r="0.2337" transform="translate(-92.98934 89.76523) rotate(-47.1704)" style="fill: #262626"/>
<circle cx="55.92662" cy="150.60266" r="0.2337" transform="translate(-92.54222 89.23531) rotate(-47.1704)" style="fill: #262626"/>
<circle cx="57.09901" cy="151.28622" r="0.2337" transform="translate(-92.66815 90.31398) rotate(-47.1704)" style="fill: #262626"/>
<circle cx="56.67133" cy="150.076" r="0.2337" transform="translate(-91.91753 89.61284) rotate(-47.1704)" style="fill: #262626"/>
<circle cx="56.96807" cy="150.66972" r="0.2337" transform="translate(-92.25795 90.02056) rotate(-47.1704)" style="fill: #262626"/>
<path d="M55.29452,143.60037a1.17958,1.17958,0,0,1,1.31686-1.03642,8.34824,8.34824,0,0,0,1.82428.1844,7.77794,7.77794,0,0,0,1.1197-.41838,1.01477,1.01477,0,0,1-.589-.414c-.194-.32441-.15179-1.09275-1.4205-1.09342a2.38733,2.38733,0,0,0-1.88716.85826s1.73675-.63247,1.55773.0866-.747-.32352-1.61646.35406A1.06073,1.06073,0,0,0,55.29452,143.60037Z" style="fill: #262626"/>
<path d="M72.14768,132.19671a.51606.51606,0,0,1-.11277.14848c-.08385.08095-.85628.69074-.7571,1.13871s.206.29826.24478.14168.12683-.80116.43071-.94929a1.164,1.164,0,0,0,.06235.92575c.25377.43837.60188,1.1683-.16946,1.60853s-1.03006-.471-1.14233-.76664S70.58852,133.00506,72.14768,132.19671Z" style="fill: #262626"/>
<path d="M71.80033,132.216a1.52886,1.52886,0,0,1-1.40353-.40554c-.20813-.232-.84793-.75293-1.36822-.52808a5.65726,5.65726,0,0,1-1.21363.32445.94484.94484,0,0,0,.44561.62743,2.85954,2.85954,0,0,0,1.58287.6048,6.71933,6.71933,0,0,0,.98322-.31334s-1.17343.08547-1.04038-.36884.54364.22462,1.02752.29187A1.76073,1.76073,0,0,0,71.80033,132.216Z" style="fill: #262626"/>
<path d="M71.00551,132.75246a3.72451,3.72451,0,0,0-2.1427.73727,1.658,1.658,0,0,0-.546,2.38445.779.779,0,0,1,.44972-.25262,2.01763,2.01763,0,0,0,1.18949-.67541c.14017-.32059.10787-1.01221.43445-1.32175a7.08879,7.08879,0,0,0,.63-.703,1.6668,1.6668,0,0,0-.8101.59682c-.3503.47132-.49766,1.36212-.96644,1.19092s-.2097-.466.09369-.58668a1.92673,1.92673,0,0,0,.61047-.50464s-.32724.12972-.37088-.02831S70.03509,132.98455,71.00551,132.75246Z" style="fill: #262626"/>
<path d="M70.43546,148.79265a1.63964,1.63964,0,0,0-1.6499-1.64434,11.6042,11.6042,0,0,1-2.54837-.04125,10.81147,10.81147,0,0,1-1.47793-.75915,1.41055,1.41055,0,0,0,.88025-.476c.32046-.41639.38674-1.484,2.13835-1.27916a3.31844,3.31844,0,0,1,2.46611,1.49087s-2.29507-1.15477-2.16453-.133,1.0837-.3255,2.17415.7509A1.47444,1.47444,0,0,1,70.43546,148.79265Z" style="fill: #262626"/>
<path d="M70.80665,146.83785a.99171.99171,0,0,0,.1947-.30078c.09154-.2044.68919-1.99868,1.56357-2.112s.67361.17756.41591.34987-1.36512.75244-1.43439,1.39839a2.23693,2.23693,0,0,1,1.71385-.4919c.958.17235,2.50457.32481,2.79647-1.35675s-1.5239-1.55407-2.13159-1.56389S71.24935,143.492,70.80665,146.83785Z" style="fill: #262626"/>
<path d="M70.61468,146.19748c.08414-.95943-1.09436-2.04712-1.64955-2.27179s-1.91456-1.04077-1.848-2.12794a10.87156,10.87156,0,0,0-.20621-2.40531,1.8157,1.8157,0,0,1,1.425.39559c.74584.56108,2.00322,1.62064,2.12681,2.46578a12.91254,12.91254,0,0,1,.0758,1.98163s-.61187-2.17658-1.34605-1.63943.761.83584,1.19855,1.66645A3.38361,3.38361,0,0,1,70.61468,146.19748Z" style="fill: #262626"/>
<path d="M71.06514,144.41064a7.15738,7.15738,0,0,1-.06685-4.35406c.75922-2.08578,1.62257-2.72869,3.95293-2.54395a1.497,1.497,0,0,0-.16287.97777,3.87729,3.87729,0,0,1-.44386,2.59088c-.48788.4627-1.759.856-2.1051,1.64839a13.62254,13.62254,0,0,1-.85918,1.59782,3.20309,3.20309,0,0,1,.54959-1.85387c.62306-.94091,2.13679-1.789,1.52122-2.52444s-.97919-.07466-.99914.55248a3.7026,3.7026,0,0,1-.51337,1.43289s.02074-.67614-.29338-.65181S70.85085,142.50519,71.06514,144.41064Z" style="fill: #262626"/>
<path d="M45.62511,144.858s-1.89171-.42226-1.19921-1.33433S45.62511,144.858,45.62511,144.858Z" style="fill: #262626"/>
<path d="M45.62511,145.2634s-2.02683-.59116-1.80726.59116S45.62511,145.2634,45.62511,145.2634Z" style="fill: #262626"/>
<path d="M45.72646,145.6883c-.205-.07866-1.689,1.50059-.65872,1.95663S46.10221,145.83247,45.72646,145.6883Z" style="fill: #262626"/>
<path d="M45.794,144.858a.78457.78457,0,0,1,.55738.42226c.11823.33781,1.26677-.8614.99653-1.5708S45.86158,144.02778,45.794,144.858Z" style="fill: #262626"/>
<path d="M45.95482,145.41542s.04188.97964.54859,1.18232a.98067.98067,0,0,0,1.18232-.33675c.152-.28819-.21957-.84557-.62494-.84557S46.4869,145.618,45.95482,145.41542Z" style="fill: #262626"/>
<path d="M46.78726,149.25635s-.81588-1.75818.32929-1.76355S46.78726,149.25635,46.78726,149.25635Z" style="fill: #262626"/>
<path d="M46.46556,149.503s-.764-1.96818-1.56875-1.07457S46.46556,149.503,46.46556,149.503Z" style="fill: #262626"/>
<path d="M46.19,149.84193c-.06231-.21056-2.21854-.4274-1.95358.66772S46.30423,150.22785,46.19,149.84193Z" style="fill: #262626"/>
<path d="M46.89,149.39039a.78457.78457,0,0,1,.004.69925c-.19615.29936,1.45436.48121,1.85291-.16488S47.59,148.93885,46.89,149.39039Z" style="fill: #262626"/>
<path d="M46.54553,149.85713s-.752.62928-.60451,1.15472a.98067.98067,0,0,0,.98661.7334c.3212-.05471.53745-.68873.29081-1.01043S46.70852,150.40263,46.54553,149.85713Z" style="fill: #262626"/>
<path d="M43.38462,148.059s1.21311-.84591,1.3688.0139S43.38462,148.059,43.38462,148.059Z" style="fill: #262626"/>
<path d="M43.15669,147.84989s1.37778-.83478.59972-1.32111S43.15669,147.84989,43.15669,147.84989Z" style="fill: #262626"/>
<path d="M42.8655,147.68772c.15-.07471.02737-1.72369-.76046-1.37956S42.59063,147.82465,42.8655,147.68772Z" style="fill: #262626"/>
<path d="M43.29751,148.15393a.59864.59864,0,0,1-.52491.09562c-.25093-.10775-.169,1.15658.36927,1.37051S43.72951,148.62014,43.29751,148.15393Z" style="fill: #262626"/>
<path d="M42.90116,147.95688s-.57244-.48172-.94775-.30133a.74827.74827,0,0,0-.42045.8385.541.541,0,0,0,.79778.08472C42.53981,148.35082,42.51284,148.15159,42.90116,147.95688Z" style="fill: #262626"/>
<path d="M73.68149,148.16578s-.79758-1.71876.32191-1.724S73.68149,148.16578,73.68149,148.16578Z" style="fill: #262626"/>
<path d="M73.367,148.40689s-.74692-1.924-1.53357-1.05047S73.367,148.40689,73.367,148.40689Z" style="fill: #262626"/>
<path d="M73.09765,148.73824c-.06092-.20584-2.16879-.41782-1.90977.65275S73.20929,149.1155,73.09765,148.73824Z" style="fill: #262626"/>
<path d="M73.782,148.29682a.767.767,0,0,1,.00393.68357c-.19175.29265,1.42175.47041,1.81136-.16118S74.46626,147.8554,73.782,148.29682Z" style="fill: #262626"/>
<path d="M73.44518,148.7531s-.7351.61517-.591,1.12883a.95868.95868,0,0,0,.96449.717c.314-.05348.5254-.67328.28429-.98777S73.60451,149.28636,73.44518,148.7531Z" style="fill: #262626"/>
<path d="M75.944,151.69814s.5693.87261-.03952.96356S75.944,151.69814,75.944,151.69814Z" style="fill: #262626"/>
<path d="M76.09614,151.54218s.55789.98832.91725.451S76.09614,151.54218,76.09614,151.54218Z" style="fill: #262626"/>
<path d="M76.21666,151.34066c.04935.10723,1.21316.05672.988-.50551S76.12621,151.14414,76.21666,151.34066Z" style="fill: #262626"/>
<path d="M75.879,151.63474a.42174.42174,0,0,1-.05593-.3717c.08132-.17435-.81075-.14413-.97308.23025S75.54131,151.92881,75.879,151.63474Z" style="fill: #262626"/>
<path d="M76.02636,151.35993s.35164-.39263.23278-.66083a.52715.52715,0,0,0-.5813-.31428.3811.3811,0,0,0-.077.55993C75.75681,151.09692,75.89768,151.08225,76.02636,151.35993Z" style="fill: #262626"/>
<path d="M77.303,144.641s-.99124-.32094-.57484-.77432S77.303,144.641,77.303,144.641Z" style="fill: #262626"/>
<path d="M77.28266,144.85793s-1.05508-.41812-.99691.22568S77.28266,144.85793,77.28266,144.85793Z" style="fill: #262626"/>
<path d="M77.31557,145.09042c-.10578-.05239-.97927.71833-.45075,1.01412S77.50944,145.18643,77.31557,145.09042Z" style="fill: #262626"/>
<path d="M77.3934,144.64945s.23079.06724.27711.254.7212-.39744.61218-.79066S77.47123,144.20849,77.3934,144.64945Z" style="fill: #262626"/>
<path d="M77.45149,144.95583s-.02676.5264.23426.6603a.52715.52715,0,0,0,.64967-.12088c.09582-.14661-.07507-.46356-.292-.48391S77.72609,145.09094,77.45149,144.95583Z" style="fill: #262626"/>
<path d="M78.16056,147.67565s.26981-1.41836.96518-.92427S78.16056,147.67565,78.16056,147.67565Z" style="fill: #262626"/>
<path d="M77.85876,147.6852s.39238-1.52294-.4827-1.33161S77.85876,147.6852,77.85876,147.6852Z" style="fill: #262626"/>
<path d="M77.5448,147.77066c.05373-.15449-1.157-1.22216-1.47227-.44434S77.44632,148.05381,77.5448,147.77066Z" style="fill: #262626"/>
<path d="M78.16454,147.8014a.58442.58442,0,0,1-.30125.42493c-.24872.096.67117.92284,1.193.70493S78.78428,147.83214,78.16454,147.8014Z" style="fill: #262626"/>
<path d="M77.75335,147.93425s-.72837.05426-.86734.43628a.7305.7305,0,0,0,.27857.87233c.21814.10639.62437-.1834.61482-.4852S77.61508,148.33516,77.75335,147.93425Z" style="fill: #262626"/>
<path d="M69.73236,137.99257s-.60774-1.30966.24528-1.31365S69.73236,137.99257,69.73236,137.99257Z" style="fill: #262626"/>
<path d="M69.49273,138.17629s-.56913-1.46608-1.16854-.80043S69.49273,138.17629,69.49273,138.17629Z" style="fill: #262626"/>
<path d="M69.28748,138.42877c-.04642-.15685-1.65257-.31837-1.4552.49738S69.37256,138.71624,69.28748,138.42877Z" style="fill: #262626"/>
<path d="M69.80891,138.09242a.58442.58442,0,0,1,.003.52087c-.14611.223,1.08334.35845,1.38022-.12282S70.33034,137.75607,69.80891,138.09242Z" style="fill: #262626"/>
<path d="M69.5523,138.44009s-.56013.46874-.4503.86014a.7305.7305,0,0,0,.73492.5463c.23926-.04075.40034-.513.21662-.75266S69.67371,138.84643,69.5523,138.44009Z" style="fill: #262626"/>
<path d="M67.04225,137.6674s1.10788-.1807.93219.45882S67.04225,137.6674,67.04225,137.6674Z" style="fill: #262626"/>
<path d="M66.95489,137.4495s1.21691-.119.84408-.70725S66.95489,137.4495,66.95489,137.4495Z" style="fill: #262626"/>
<path d="M66.80885,137.24294c.12716-.0019.58454-1.17063-.06758-1.19374S66.57579,137.24642,66.80885,137.24294Z" style="fill: #262626"/>
<path d="M66.95146,137.7038a.45437.45437,0,0,1-.39062-.10686c-.13635-.15611-.49531.736-.19716,1.05913S67.09407,138.16466,66.95146,137.7038Z" style="fill: #262626"/>
<path d="M66.7449,137.43884s-.23363-.51757-.54969-.51732a.56794.56794,0,0,0-.563.43582c-.01961.18767.30026.40721.51816.31985S66.41523,137.44462,66.7449,137.43884Z" style="fill: #262626"/>
<path d="M66.32151,130.67389s.5949.31094.28144.55391S66.32151,130.67389,66.32151,130.67389Z" style="fill: #262626"/>
<path d="M66.35787,130.53829s.62494.37956.65755-.03562S66.35787,130.53829,66.35787,130.53829Z" style="fill: #262626"/>
<path d="M66.36209,130.38707c.06152.0447.69959-.35043.39586-.5954S66.24933,130.30514,66.36209,130.38707Z" style="fill: #262626"/>
<path d="M66.265,130.65873a.27171.27171,0,0,1-.14856-.19124c-.00925-.1236-.501.1745-.47424.436S66.16794,130.9304,66.265,130.65873Z" style="fill: #262626"/>
<path d="M66.26122,130.45787s.07387-.33144-.07744-.44469a.33963.33963,0,0,0-.42569.00658c-.0767.08276-.0024.30254.13319.3389S66.10141,130.34238,66.26122,130.45787Z" style="fill: #262626"/>
<path d="M68.2631,129.65356s.89347.467.42269.83191S68.2631,129.65356,68.2631,129.65356Z" style="fill: #262626"/>
<path d="M68.31772,129.44991s.9386.57006.98758-.0535S68.31772,129.44991,68.31772,129.44991Z" style="fill: #262626"/>
<path d="M68.32405,129.22279c.0924.06714,1.05071-.52631.59454-.89423S68.1547,129.09974,68.32405,129.22279Z" style="fill: #262626"/>
<path d="M68.17825,129.6308a.40808.40808,0,0,1-.22313-.28723c-.01389-.18564-.75246.26209-.71227.65488S68.03245,130.03881,68.17825,129.6308Z" style="fill: #262626"/>
<path d="M68.17256,129.32912s.11094-.49779-.11631-.66789a.51008.51008,0,0,0-.63935.00989c-.1152.1243-.00361.45438.2.509S67.93254,129.15568,68.17256,129.32912Z" style="fill: #262626"/>
<path d="M80.73827,136.58684a.63637.63637,0,0,0-.142-.88634c-.49556-.40417-.48674-.85221-.83441-1.09531a1.3505,1.3505,0,0,0-1.5504.31706c-.214.42654-.16406.447.44806.4725s1.30014.24516,1.19877.49211.04553.45781-.3996.26253-.405-.53008-.77763-.57015a1.67907,1.67907,0,0,0-.88312.32751s.28567.18.29155.30788-.072.45975.36628.57693.83232.10517.69675.29323.02554.31693-.4475.04746-.74971-.496-.96371-.496-.43828-.11719-.60479.241a1.73592,1.73592,0,0,0,.08469,1.02592s.62094.004.46619.19138-.57784-.06156-.57784-.06156-1.01417.14825-1.14836.56992c0,0-.10187.48512.3129.51738s.59352-.30839.644-.09949-.46033.36306-.74926.54557.38437,1.57551.18211,1.83123a2.41378,2.41378,0,0,1-.89029.46258s1.07194.32713,1.2409.05774-.1445-1.60251.39616-1.2551.27964.6041.27964.6041.68412-.4343.37661-1.0122-.30612-1.06663-.09648-.95548.8041,1.03268.62339,1.47289-.88883,1.02776-.573,1.39579a2.2581,2.2581,0,0,1,.75024-.59535c.45739-.21372.09948-2.28022.4075-2.36706s.82416.125.68458.60723-.3306,1.6584-.0074,1.86635,1.08911-.75735,1.04947-1.51385-.39858-1.067-.23354-1.56378a2.35323,2.35323,0,0,0,.1107-.93316s-.52937.2469-.58717.62465a5.58614,5.58614,0,0,0,.0127,1.0591s-.50533-1.18605-.41474-1.312c0,0-.98115.55205-1.12432,1.32a2.55891,2.55891,0,0,1,.093-.94043,2.62871,2.62871,0,0,0-1.53526,1.89155,3.618,3.618,0,0,1,.65184-1.77745c.63076-.92041,1.62449-.34937,1.39867-.65536s-1.20913-.23289-1.38689-.36859c0,0,.70076-.00089,1.19976.01576A2.30891,2.30891,0,0,0,80.73827,136.58684Z" style="fill: #262626"/>
<path d="M49.30966,129.54342a1.00129,1.00129,0,0,1,.21017-1.34587c.72175-.58043.71089-1.267,1.21708-1.61226a1.94908,1.94908,0,0,1,2.25112.60516c.30906.6695.2364.697-.653.68869s-1.89.27484-1.74379.66071-.06815.69731.57942.43277.59068-.78018,1.13227-.81272a2.50494,2.50494,0,0,1,1.28162.5696s-.41583.25348-.42492.44878.10259.70936-.53467.85489-1.2097.09668-1.01356.39505-.03849.4832.64995.10724,1.0914-.7013,1.40231-.68481.63727-.14553.87761.41571a2.74749,2.74749,0,0,1-.12753,1.564s-.90215-.04189-.67814.25694.83979-.04959.83979-.04959,1.4728.30531,1.66591.96119c0,0,.14588.75051-.45687.76785s-.861-.51795-.93514-.20206.6672.59136,1.08617.89307-.56533,2.38215-.2726,2.78924a3.66534,3.66534,0,0,0,1.29143.77692s-1.55881.418-1.8031-.0075.21695-2.442-.57007-1.952-.40892.90317-.40892.90317-.992-.7177-.54273-1.57861.44941-1.60918.14436-1.45523-1.17276,1.51873-.91214,2.20658,1.28685,1.642.82636,2.181a3.585,3.585,0,0,0-1.08738-.96935c-.66358-.36251-.13455-3.49832-.58168-3.65506a.73726.73726,0,0,0-.99726.87667c.20068.74894.47305,2.56428.00258,2.85765s-1.579-1.24353-1.5181-2.39854.58375-1.60253.34614-2.37584a3.8353,3.8353,0,0,1-.15675-1.43707s.768.41886.85034,1.00161a8.98027,8.98027,0,0,1-.02309,1.62032,7.756,7.756,0,0,0,.60829-1.97635A3.94459,3.94459,0,0,1,52.7588,133.973a4.16794,4.16794,0,0,0-.131-1.44683A4.22892,4.22892,0,0,1,54.85,135.54046a5.986,5.986,0,0,0-.93925-2.77135c-.91238-1.45774-2.35862-.66036-2.0292-1.11132s1.75772-.26309,2.01656-.45709c0,0-1.0181-.05552-1.74315-.06858A3.48207,3.48207,0,0,1,49.30966,129.54342Z" style="fill: #262626"/>
<path d="M81.07629,131.97232l-.67749-6.63562a4.32455,4.32455,0,0,0,.67749-3.22211s-13.81757,1.84326-19.94482,1.84375v16.21527l.38007,12.493a26.96689,26.96689,0,0,0,9.20837,1.375c4.45831-.29169,10.625-2.625,10.625-2.625Z" style="opacity: 0.1"/><polygon points="60.231 171.74 36.231 171.74 36.231 178.357 60.387 178.357 60.231 171.74" style="fill: #b59d8a"/>
<polygon points="60.231 171.74 36.231 171.74 36.231 178.357 60.387 178.357 60.231 171.74" style="opacity: 0.2"/>
<polygon points="62.137 171.74 86.137 171.74 86.137 178.357 61.981 178.357 62.137 171.74" style="fill: #b59d8a"/>
<polygon points="62.137 171.74 86.137 171.74 86.137 178.357 61.981 178.357 62.137 171.74" style="opacity: 0.3"/><path d="M61.17165,16.83334A15.92952,15.92952,0,0,0,45.28884,32.71616v7.21327S46.842,70.33505,61.17165,70.33505,77.067,39.92813,77.067,39.92813l-.01254-7.212A15.92948,15.92948,0,0,0,61.17165,16.83334Z" style="fill: #f9e6cc"/>
<path d="M77.0545,32.71616A15.92948,15.92948,0,0,0,61.17168,16.83334V70.33505c14.32965,0,15.89532-30.40692,15.89532-30.40692Z" style="fill: #804b3c;opacity: 0.1"/><circle cx="66.95" cy="38.32" r="2.41" style="fill: #229433"/>\r\n<circle cx="55.51" cy="38.32" r="2.41" style="fill: #229433"/><polygon points="61.134 40.729 58.359 49.056 61.134 49.056 63.91 49.056 61.134 40.729" style="fill: #d58373"/>
<polygon points="61.134 40.729 58.359 49.056 61.134 49.056 63.91 49.056 61.134 40.729" style="fill: #f9e6cc;opacity: 0.5"/>
<polygon points="61.134 40.729 61.148 48.044 58.359 49.056 61.134 49.056 63.91 49.056 61.134 40.729" style="fill: #804b3c;opacity: 0.15"/><path d="M78.73382,79.45834a26.59814,26.59814,0,0,1,1.65625-3.91809,20.22122,20.22122,0,0,0-9.005-2.98962,31.1091,31.1091,0,0,0-9.40125.866h-.84119l-.00842.01819v-.01819H60.293a31.1091,31.1091,0,0,0-9.40125-.866,20.22122,20.22122,0,0,0-9.005,2.98962A26.59814,26.59814,0,0,1,43.543,79.45834c.15625.9375-1.65625,45.65625-1.65625,45.65625s16.65625,2.21875,19.24744,2.21875v-.28662l.00842.28662c2.59119,0,19.24744-2.21875,19.24744-2.21875S78.57757,80.39584,78.73382,79.45834Z" style="fill: #f0f0f0"/>
<path d="M78.73382,79.45834a26.59814,26.59814,0,0,1,1.65625-3.91809,20.22122,20.22122,0,0,0-9.005-2.98962,31.1091,31.1091,0,0,0-9.40125.866h-.84119l-.00842.01819v-.01819H60.293a31.1091,31.1091,0,0,0-9.40125-.866,20.22122,20.22122,0,0,0-9.005,2.98962A26.59814,26.59814,0,0,1,43.543,79.45834c.15625.9375-1.65625,45.65625-1.65625,45.65625s16.65625,2.21875,19.24744,2.21875v-.28662l.00842.28662c2.59119,0,19.24744-2.21875,19.24744-2.21875S78.57757,80.39584,78.73382,79.45834Z" style="opacity: 0.05"/>
<path d="M38.45969,76.66667A108.314,108.314,0,0,0,33.50136,92.5c-2.08333,9-4.14583,36.83333-4.14583,36.83333s2.34973,4.09048,11.83112,2.639l3.16888-35.264S41.00136,75.6875,38.45969,76.66667Z" style="fill: #ccaf84"/>
<path d="M38.45971,76.66666l3.92706,19.35419-3.195,36.17932c.63062-.0506,1.28668-.11945,1.99487-.22784l3.16888-35.264S41.00133,75.68747,38.45971,76.66666Z" style="opacity: 0.2"/>
<path d="M48.918,72.55063c-3.87714.48219-10.52083,3.42854-10.45833,4.116s4.63146,17.61067,4.50117,21.04563-1.77422,34.26-1.77422,34.26l-1.26862,29.361s11.66225,3.8125,16,3.8125c0,0-.08875-72.6875-.32562-73.625s-4.70062-18.9702-4.70062-18.9702Z" style="fill: #ccaf84"/>
<path d="M55.918,165.14584s-.08875-72.6875-.32562-73.625-4.70062-18.97021-4.70062-18.97021H48.918c-3.87714.48218-10.52081,3.42853-10.45831,4.116A108.316,108.316,0,0,0,33.50133,92.5c-2.08331,9-4.14581,36.83337-4.14581,36.83337s2.34973,4.09045,11.83112,2.639l-1.26862,29.361S51.58025,165.14584,55.918,165.14584Z" style="opacity: 0.05"/>
<path d="M60.293,73.41667l-1.4762,7.41667s-5.07629-6.05541-7.925-8.2827c0,0,.31007-2.937.89732-3.4105C51.7891,69.14013,59.44743,72.29167,60.293,73.41667Z" style="fill: #f0f0f0"/>
<path d="M51.04362,71.45843a9.2298,9.2298,0,0,0-4.79227,1.33323c-.457.4627-3.125,16.06566-2.75,16.387s10.52174,1.19633,10.4692,1.90467-10.5199-.29167-10.61955,0,8.48168,34.75006,12.4931,37.625c0,0,.66193-33.43753.61792-36.625S50.98172,73.771,51.04362,71.45843Z" style="fill: #ccaf84"/>
<g style="opacity: 0.2">
<path d="M46.98743,72.35544l-1.05429,7.963-.52085,3.98141c-.15871,1.314-.36813,2.68414-.43577,3.95259l-.13138-.13354a64.11461,64.11461,0,0,1,7.30427,1.38313,13.96827,13.96827,0,0,1,1.78349.592,3.58316,3.58316,0,0,1,.85486.48115.84991.84991,0,0,1,.32006.50365.57955.57955,0,0,1-.30034.57244,4.91459,4.91459,0,0,1-1.88221.46271c-.62333.06283-1.24493.09145-1.86577.11011-1.2415.035-2.48005.02273-3.71575.01295l-1.84732-.00053a7.56068,7.56068,0,0,0-.88847.05328l-.085.01772c-.00428-.01981-.05237.07194.06568-.08965.03188-.187-.00048-.10736.018-.09718l.01452.055.02923.11107.11585.44818,1.9046,7.16389c1.29542,4.76931,2.62943,9.52861,4.05125,14.26117.70906,2.36692,1.46156,4.71985,2.2257,7.06876.39156,1.17106.78826,2.34128,1.23536,3.4922.22348.57532.4546,1.14808.714,1.70811a5.46885,5.46885,0,0,0,.96092,1.57052,5.48858,5.48858,0,0,1-1.0043-1.54966c-.27462-.55469-.52108-1.12251-.76-1.6931-.47792-1.14156-.90545-2.30266-1.328-3.46515-.84478-2.32558-1.58832-4.68523-2.32728-7.04489-1.46537-4.72373-2.84264-9.4735-4.18145-14.23375l-1.97-7.1516-.12014-.44819-.02931-.11314L44.1231,92.243c.00944-.02724-.03791.01543.003-.21049.1556-.23347.196-.15577.26047-.20311a1.345,1.345,0,0,1,.14175-.02931,7.83091,7.83091,0,0,1,.96107-.05141l1.86019.017c1.23573.02081,2.46932.04391,3.69913.02011.61445-.013,1.22856-.036,1.83559-.09178a4.73015,4.73015,0,0,0,1.69975-.38114c.10475-.0727.147-.125.12575-.18141.00554-.06551-.0897-.16588-.17811-.2524a3.24828,3.24828,0,0,0-.75388-.42813,13.61837,13.61837,0,0,0-1.72764-.58972,63.82394,63.82394,0,0,0-7.2466-1.43843l-.13789-.02086L44.672,88.289c.0785-1.40481.30157-2.68362.47171-4.02522.18443-1.32646.37423-2.65195.58422-3.97443Z"/>
</g>
<path d="M83.81716,76.66667A108.314,108.314,0,0,1,88.77549,92.5c2.08333,9,4.14583,36.83333,4.14583,36.83333s-2.34973,4.09048-11.83112,2.639l-3.16888-35.264S81.27549,75.6875,83.81716,76.66667Z" style="fill: #ccaf84"/>
<path d="M83.81714,76.66666,79.89007,96.02084l3.195,36.17932c-.63062-.0506-1.28668-.11945-1.99487-.22784l-3.16888-35.264S81.27551,75.68747,83.81714,76.66666Z" style="opacity: 0.2"/>
<path d="M73.35882,72.55063c3.87714.48219,10.52083,3.42854,10.45833,4.116S79.1857,94.27733,79.316,97.7123s1.77422,34.26,1.77422,34.26l1.26862,29.361s-11.66225,3.8125-16,3.8125c0,0,.08875-72.6875.32562-73.625s4.70062-18.9702,4.70062-18.9702Z" style="fill: #ccaf84"/>
<path d="M61.98382,73.41667,63.46,80.83333s5.07629-6.05541,7.925-8.2827c0,0-.31007-2.937-.89732-3.4105C70.48775,69.14013,62.82941,72.29167,61.98382,73.41667Z" style="fill: #f0f0f0"/>
<path d="M71.23322,71.45843a9.2298,9.2298,0,0,1,4.79227,1.33323c.457.4627,3.125,16.06566,2.75,16.387S68.25376,90.375,68.30629,91.08333s10.5199-.29167,10.61955,0-8.48168,34.75006-12.4931,37.625c0,0-.66193-33.43753-.61792-36.625S71.29512,73.771,71.23322,71.45843Z" style="fill: #ccaf84"/>
<g style="opacity: 0.2">
<path d="M75.28942,72.35544l1.25946,7.93391c.21,1.32248.3998,2.648.58423,3.97443.17014,1.3416.3932,2.62041.47171,4.02522l.00631.11292-.13789.02086a63.824,63.824,0,0,0-7.2466,1.43843,13.61837,13.61837,0,0,0-1.72764.58972,3.24825,3.24825,0,0,0-.75388.42813c-.08841.08652-.18365.18689-.17811.2524-.02125.05637.021.10871.12575.18141a4.73015,4.73015,0,0,0,1.69975.38114c.607.05579,1.22114.07883,1.83559.09178,1.2298.0238,2.4634.00069,3.69913-.02011l1.86019-.017a7.83087,7.83087,0,0,1,.96107.05141,1.345,1.345,0,0,1,.14175.02931c.06445.04734.10487-.03036.26047.20311.041.22592-.0064.18325.003.21049l-.01454.05716-.02931.11314-.12014.44819-1.97,7.1516c-1.3388,4.76025-2.71608,9.51-4.18145,14.23375-.739,2.35966-1.4825,4.71931-2.32728,7.04489-.42255,1.16249-.85008,2.32359-1.328,3.46515-.23887.57059-.48533,1.13841-.76,1.6931a5.48857,5.48857,0,0,1-1.0043,1.54966,5.46889,5.46889,0,0,0,.96092-1.57052c.25939-.56.49052-1.13279.714-1.70811.4471-1.15092.84381-2.32114,1.23536-3.4922.76415-2.34892,1.51664-4.70184,2.2257-7.06876,1.42182-4.73256,2.75583-9.49186,4.05126-14.26117l1.9046-7.16389.11585-.44818.02923-.11107.01452-.055c.01852-.01019-.01385-.08981.018.09718.11805.16158.07.06983.06568.08965l-.085-.01772a7.56064,7.56064,0,0,0-.88847-.05328l-1.84732.00053c-1.23569.00978-2.47425.02209-3.71575-.01295-.62084-.01866-1.24244-.04728-1.86577-.11011a4.9146,4.9146,0,0,1-1.88221-.46271.57955.57955,0,0,1-.30034-.57244.84991.84991,0,0,1,.32005-.50365,3.58315,3.58315,0,0,1,.85486-.48115,13.9683,13.9683,0,0,1,1.78349-.592,64.11465,64.11465,0,0,1,7.30427-1.38313l-.13138.13354c-.06764-1.26845-.27707-2.6386-.43577-3.95259l-.52085-3.98141Z"/>
</g>
<circle cx="61.13861" cy="74.7098" r="0.56471" style="fill: #f0f0f0"/>
<circle cx="61.13861" cy="83.62999" r="0.56471" style="fill: #f0f0f0"/>
<circle cx="61.13861" cy="79.1699" r="0.56471" style="fill: #f0f0f0"/>
<circle cx="61.13861" cy="88.09008" r="0.56471" style="fill: #f0f0f0"/>
<circle cx="61.13861" cy="97.01027" r="0.56471" style="fill: #f0f0f0"/>
<circle cx="61.13861" cy="92.55018" r="0.56471" style="fill: #f0f0f0"/>
<circle cx="61.13861" cy="101.47037" r="0.56471" style="fill: #f0f0f0"/>
<circle cx="61.13861" cy="110.39055" r="0.56471" style="fill: #f0f0f0"/>
<circle cx="61.13861" cy="105.93046" r="0.56471" style="fill: #f0f0f0"/>
<circle cx="61.13861" cy="114.85065" r="0.56471" style="fill: #f0f0f0"/>
<circle cx="61.13861" cy="123.77083" r="0.56471" style="fill: #f0f0f0"/>
<circle cx="61.13861" cy="119.31074" r="0.56471" style="fill: #f0f0f0"/>
<g style="opacity: 0.05">
<path d="M60.293,73.41666q.13741,6.734.19143,13.468l.05828,13.468-.05741,13.468q-.05045,6.734-.1923,13.468-.13876-6.734-.1923-13.468l-.05741-13.468.05828-13.468Q60.1516,80.15066,60.293,73.41666Z"/>
</g>
<circle cx="67.73052" cy="129.20833" r="0.84375" style="opacity: 0.2"/>
<circle cx="67.73052" cy="138.16667" r="0.84375" style="opacity: 0.2"/><path d="M52.95969,16.5s-.97763-5.86578,8.39583-6.41506C70.62636,9.54167,75.08469,10.625,75.543,16s-.0625,8.51042,1.6875,8.92708,1.625-1.125,1.625-1.125,1.17708,1.88542-.15625,2.96875-7.78125-3.8125-8.32292-6.22917S52.95969,16.5,52.95969,16.5Z" style="fill: #59433d"/>
<path d="M52.95969,16.5s-.97763-5.86578,8.39583-6.41506C70.62636,9.54167,75.08469,10.625,75.543,16s-.0625,8.51042,1.6875,8.92708,1.625-1.125,1.625-1.125,1.17708,1.88542-.15625,2.96875-7.78125-3.8125-8.32292-6.22917S52.95969,16.5,52.95969,16.5Z" style="opacity: 0.1"/>
<path d="M80.918,24.29166c-.125-.20831-.38672,1.6272-1.29169,1.5-3.13824-.4411-1.41663-5.58331-3.29163-10.41669s-9.70837-6-15.95837-4.91663-6.34,3.94672-6.24646,5.79163l.00183.0108a2.72266,2.72266,0,0,0-1.20984-.59412c-2.75385-.41669-5.782,2.38293-5.67053,4.91669a3.92814,3.92814,0,0,0-2.47241,4A3.68455,3.68455,0,0,0,44.45971,29s-.70392,1.69385.523,8.63861l.0011-.00562a10.06971,10.06971,0,0,0,.6842,3.2265c.5.02612.58331-4.27612.58331-4.998S48.418,28.58334,48.418,28.58334c.75-.75,2-5.58337,2.66669-5.83337.50525-.18945,4.59656.43359,7.63934.74683l.00232.00055-.00012-.00031c.96057.09888,1.81927.1676,2.42389.16907v.00055l.0108-.00024.01074.00024v-.00055c2.52-.006,9.40051-1.16547,10.06549-.91614.66663.25,1.91663,5.08337,2.66663,5.83337,0,0,2.16669,6.55627,2.16669,7.27814s.08331,5.02411.58331,4.998c.173-.009.89209-2.96155.88782-6.817l.00128-.00085c.87488-.91669.41681-5.48688.41681-5.48688s.51764,1.68121,2.58752-.22144C82.043,26.95834,81.043,24.5,80.918,24.29166Zm-19.76239-3.8042.01056.00116-.00525,1.046Z" style="fill: #59433d"/>
<polygon points="61.161 21.535 61.166 20.489 61.156 20.487 61.161 21.535"/>
<path d="M80.918,24.29166c-.125-.20831-.38672,1.6272-1.29169,1.5-3.13824-.4411-1.41663-5.58331-3.29163-10.41669a6.65322,6.65322,0,0,0-2.72925-3.16132c1.60138,1.20941,2.08588,2.641.93756,2.41132-1.25-.25-6.75-2.875-12.33331-.83582-4.0014,1.46136-4.72491,6.70093-4.81573,9.56036.4552.053.90332.10333,1.33008.14728l.00232.00055-.00012-.00031c.96057.09888,1.81927.1676,2.42389.16907v.00055l.0108-.00024.01074.00024v-.00055c2.52-.006,9.40051-1.16547,10.06549-.91614.66663.25,1.91663,5.08337,2.66663,5.83337,0,0,2.16669,6.55627,2.16669,7.27814s.08331,5.02411.58331,4.998c.173-.009.89209-2.96155.88782-6.817l.00128-.00085c.87488-.91669.41681-5.48688.41681-5.48688s.51764,1.68121,2.58752-.22144C82.043,26.95834,81.043,24.5,80.918,24.29166Zm-19.75708-2.757-.00531-1.04718.01056.00116Z" style="opacity: 0.05"/>
<path d="M58.72636,23.49733s-.68334-6.9765,4.37916-8.914,10.25.08327,11.625,1.66664-.6875,7.95836,1.6875,9.20836,3.9375-.8125,3.75-1.5a3.55687,3.55687,0,0,1,.01521,3.125,2.76062,2.76062,0,0,1-4.45271.6875,9.00088,9.00088,0,0,1-3.625-7.8125s-1.75957,7.57338.8125,8.3125,2.5-2.125,2.5-2.125,1.125,3.1875-2.125,3.6875a4.54465,4.54465,0,0,1-5.25-4.8125c.1875-2.5625,2.9375-7.625.125-8.18749s-5.73988,3.91266-4.68244,6.67508a18.548,18.548,0,0,1-2.33544.15824A19.63914,19.63914,0,0,1,58.72636,23.49733Z" style="fill: #59433d"/>
<path d="M80.918,24.29166c-.06793-.11316-.18054.37488-.41034.82568a3.90874,3.90874,0,0,0-.33966-1.159,1.69576,1.69576,0,0,1-.834,1.41589,3.48943,3.48943,0,0,0-.47852-1.57214,1.12817,1.12817,0,0,1-.63416,1.12524c-1.16034-1.73431-.4057-5.7348-1.88666-9.55237a6.24386,6.24386,0,0,0-1.78754-2.46478c-1.8175-2.69421-6.08649-3.24164-13.19165-2.82526-.07782.00458-.1449.01447-.22131.01978V23.66641l.01593.00024.013-.00018.00854.00018v-.00031a18.59853,18.59853,0,0,0,2.3139-.158l-.00012-.00049c1.58771-.16071,3.47565-.40948,5.0014-.58624a11.51748,11.51748,0,0,0-.44385,2.09918,4.54465,4.54465,0,0,0,5.25,4.8125,3.65366,3.65366,0,0,0,.93231-.26672c.60278,1.85614,1.84515,5.74792,1.84515,6.29486,0,.72186.08331,5.02411.58331,4.998.173-.009.89209-2.96155.88782-6.817l.00128-.00085c.85321-.894.43982-5.25043.41876-5.46643l.00507-.00037c.06665.18256.64429,1.53827,2.58051-.24152C82.043,26.95834,81.043,24.5,80.918,24.29166Zm-8,3.97919c-1.42639-.40991-1.51929-2.92035-1.32019-5.0766.64087,1.15894,1.52783,4.23712,2.15637,5.197A2.7685,2.7685,0,0,1,72.918,28.27084Z" style="opacity: 0.1"/><path d="M61.18,16.83h0C55.26,16.83,45,20.29,45,32s3.63,21.46,5,21.92,7-3.69,11.13-3.71,9.74,4.16,11.13,3.71,5-10.25,5-21.92S67.05,16.83,61.18,16.83ZM55.39,41.2a3,3,0,1,1,3-3A3,3,0,0,1,55.39,41.2Zm11.56,0a3,3,0,1,1,3-3A3,3,0,0,1,66.95,41.2Z" style="fill: #fafafa"/>
<circle cx="69.79" cy="34.32" r="1.38" style="fill: #9c0000"/>
<circle cx="72.32" cy="35.22" r="1.38" style="fill: #9c0000"/>
<circle cx="72.97" cy="37.82" r="1.38" style="fill: #9c0000"/>
<circle cx="71.39" cy="40.03" r="1.38" style="fill: #9c0000"/>
<path d="M68.25,35a1.36,1.36,0,0,0,.07-.41,1.38,1.38,0,1,0-2.56.69Z" style="fill: #9c0000"/>
<path d="M69.7,40.12l-.27.71-1.93.33s0,0,0,0a1.38,1.38,0,1,0,2.2-1.09Z" style="fill: #9c0000"/>
<path d="M65.69,35.57A1.37,1.37,0,1,0,63.89,37Z" style="fill: #9c0000"/>
<path d="M64.06,37.1a1.38,1.38,0,1,0-.3,2.12Z" style="fill: #9c0000"/>
<path d="M63.48,39.21a1.37,1.37,0,1,0,1.46,1.63Z" style="fill: #9c0000"/>
<path d="M65.89,41.21l-.75-.66a1.38,1.38,0,1,0,2.33.65Z" style="fill: #9c0000"/>
<path d="M66.95,34.58c-3.8.75-5.17,4.18-3.28,6,2.94,2.76,9.67-.62,9.37-3.25S70.75,33.83,66.95,34.58Zm0,6.5a2.76,2.76,0,1,1,2.76-2.76A2.76,2.76,0,0,1,66.95,41.08Z"/>
<path d="M63.19,31.33a1.09,1.09,0,0,0-.65.67.69.69,0,0,0,.29.7,2.43,2.43,0,0,0,1.74-.07,5.9,5.9,0,0,0,.88-.37l.88-.5c.6-.34,1.21-.67,1.82-1a18.86,18.86,0,0,1,3.91-1.57,4.36,4.36,0,0,1,1.1-.15,1.81,1.81,0,0,1,.61.1,1.11,1.11,0,0,1,.51.42.7.7,0,0,1,.05.68,1.33,1.33,0,0,1-.37.45,3.2,3.2,0,0,1-.92.52,4.41,4.41,0,0,0,.75-.69c.22-.26.31-.56.13-.69-.35-.38-1-.11-1.65.08a36.07,36.07,0,0,0-3.67,1.73l-1.83.94-.95.46a4.75,4.75,0,0,1-1.06.34,2.69,2.69,0,0,1-2.25-.3,1.07,1.07,0,0,1-.23-1.17A1.1,1.1,0,0,1,63.19,31.33Z" style="fill: #e0b74c"/>
<circle cx="72.97" cy="30.66" r="0.55" style="fill: #e0b74c"/>
<path d="M64.26,32.09c.15.32,1.33-.54,1.17-1.74,0,0-.3.65-.5.74S64,31.59,64.26,32.09Z" style="fill: #e0b74c"/>
<path d="M66,31.41c.15.32,1.33-.54,1.17-1.74,0,0-.3.65-.5.74S65.79,30.91,66,31.41Z" style="fill: #e0b74c"/>
<path d="M67.75,30.51c.15.32,1.33-.54,1.17-1.74,0,0-.3.65-.5.74S67.52,30,67.75,30.51Z" style="fill: #e0b74c"/>
<path d="M62.83,42.59s.32,1.58.95,1.72,1.1-.25,1-.52S63,43.05,62.83,42.59Z" style="fill: #e0b74c"/>
<path d="M65.29,44.93a1.94,1.94,0,0,0-.19,1.92A2.1,2.1,0,0,0,66.47,48a5.83,5.83,0,0,0,2,.23,7.81,7.81,0,0,0,2-.28,3.94,3.94,0,0,0,2.69-2.54c.27-.63.47-1.31.72-2a6.25,6.25,0,0,1,.48-1,1.52,1.52,0,0,1,.83-.71,2.65,2.65,0,0,0-.84,1.84,18.21,18.21,0,0,1-.46,2.13,5.14,5.14,0,0,1-1.11,2,4.43,4.43,0,0,1-2,1.21,7.26,7.26,0,0,1-4.51-.17A2.56,2.56,0,0,1,64.61,47,2,2,0,0,1,65.29,44.93Z" style="fill: #3e5887"/>
<path d="M73.05,46.48a1.64,1.64,0,0,1-.48,1.16,5.33,5.33,0,0,1-.95.84A8.65,8.65,0,0,1,66.94,50a3.87,3.87,0,0,1-2.39-.66,7,7,0,0,0,2.32-.12,19.63,19.63,0,0,0,2.22-.59,18.81,18.81,0,0,0,2.15-.82A3.7,3.7,0,0,0,73.05,46.48Z" style="fill: #3e5887"/>
<circle cx="52.55" cy="34.32" r="1.38" style="fill: #9c0000"/>
<circle cx="50.02" cy="35.22" r="1.38" style="fill: #9c0000"/>
<circle cx="49.38" cy="37.82" r="1.38" style="fill: #9c0000"/>
<circle cx="50.95" cy="40.03" r="1.38" style="fill: #9c0000"/>
<path d="M54.09,35a1.36,1.36,0,0,1-.07-.41,1.38,1.38,0,1,1,2.56.69Z" style="fill: #9c0000"/>
<path d="M52.64,40.12l.27.71,1.93.33s0,0,0,0a1.38,1.38,0,1,1-2.2-1.09Z" style="fill: #9c0000"/>
<path d="M56.65,35.57A1.37,1.37,0,1,1,58.45,37Z" style="fill: #9c0000"/>
<path d="M58.28,37.1a1.38,1.38,0,1,1,.3,2.12Z" style="fill: #9c0000"/>
<path d="M58.86,39.21a1.37,1.37,0,1,1-1.46,1.63Z" style="fill: #9c0000"/>
<path d="M56.46,41.21l.75-.66a1.38,1.38,0,1,1-2.33.65Z" style="fill: #9c0000"/>
<path d="M49.3,37.29c-.29,2.63,6.43,6,9.38,3.25,1.89-1.78.52-5.21-3.28-6S49.59,34.67,49.3,37.29Zm3.33,1a2.76,2.76,0,1,1,2.76,2.76A2.76,2.76,0,0,1,52.63,38.32Z"/>
<path d="M59.15,31.33a1.1,1.1,0,0,1,.9.58,1.07,1.07,0,0,1-.23,1.17,2.69,2.69,0,0,1-2.25.3,4.75,4.75,0,0,1-1.06-.34l-.95-.46-1.83-.94a36.07,36.07,0,0,0-3.67-1.73c-.61-.2-1.3-.46-1.65-.08-.18.13-.09.44.13.69a4.41,4.41,0,0,0,.75.69,3.2,3.2,0,0,1-.92-.52,1.33,1.33,0,0,1-.37-.45.7.7,0,0,1,.05-.68,1.11,1.11,0,0,1,.51-.42,1.81,1.81,0,0,1,.61-.1,4.36,4.36,0,0,1,1.1.15,18.86,18.86,0,0,1,3.91,1.57c.62.32,1.22.66,1.82,1l.88.5a5.9,5.9,0,0,0,.88.37,2.43,2.43,0,0,0,1.74.07.69.69,0,0,0,.29-.7A1.09,1.09,0,0,0,59.15,31.33Z" style="fill: #e0b74c"/>
<circle cx="49.38" cy="30.66" r="0.55" style="fill: #e0b74c"/>
<path d="M58.08,32.09c-.15.32-1.33-.54-1.17-1.74,0,0,.3.65.5.74S58.31,31.59,58.08,32.09Z" style="fill: #e0b74c"/>
<path d="M56.31,31.41c-.15.32-1.33-.54-1.17-1.74,0,0,.3.65.5.74S56.55,30.91,56.31,31.41Z" style="fill: #e0b74c"/>
<path d="M54.59,30.51c-.15.32-1.33-.54-1.17-1.74,0,0,.3.65.5.74S54.82,30,54.59,30.51Z" style="fill: #e0b74c"/>
<path d="M62.65,44.92c-.65-1.2-1.51-3-1.51-3s-.79,1.76-1.44,3S57.77,47.41,58.45,49s2.69.08,2.69.08,2.08,1.49,2.76-.08S63.29,46.12,62.65,44.92Z"/>
<path d="M59.52,42.59s-.32,1.58-.95,1.72-1.1-.25-1-.52S59.34,43.05,59.52,42.59Z" style="fill: #e0b74c"/>
<path d="M57,44.93A2,2,0,0,1,57.73,47a2.56,2.56,0,0,1-1.57,1.75,7.26,7.26,0,0,1-4.51.17,4.43,4.43,0,0,1-2-1.21,5.14,5.14,0,0,1-1.11-2A18.21,18.21,0,0,1,48,43.55a2.65,2.65,0,0,0-.84-1.84,1.52,1.52,0,0,1,.83.71,6.25,6.25,0,0,1,.48,1c.25.68.45,1.37.72,2A3.94,3.94,0,0,0,51.93,48a7.81,7.81,0,0,0,2,.28,5.83,5.83,0,0,0,2-.23,2.1,2.1,0,0,0,1.37-1.16A1.94,1.94,0,0,0,57,44.93Z" style="fill: #3e5887"/>
<path d="M49.29,46.48a3.7,3.7,0,0,0,1.82,1.33,18.81,18.81,0,0,0,2.15.82,19.63,19.63,0,0,0,2.22.59,7,7,0,0,0,2.32.12,3.87,3.87,0,0,1-2.39.66,8.65,8.65,0,0,1-4.69-1.51,5.33,5.33,0,0,1-.95-.84A1.64,1.64,0,0,1,49.29,46.48Z" style="fill: #3e5887"/>
<path d="M69.73,19.15c-.33.09-1,.28-1.76.52a3.81,3.81,0,0,0-1.74-1.59l.29-.13a.25.25,0,0,0-.19-.46s-.31.13-.69.32a10.59,10.59,0,0,0-1.85-.53l.15-.12a.25.25,0,0,0-.28-.41,4,4,0,0,0-.5.43A14,14,0,0,0,61.42,17v-.19a.25.25,0,0,0-.25-.25h0a.25.25,0,0,0-.25.25V17a14,14,0,0,0-1.73.15,4,4,0,0,0-.5-.43.25.25,0,0,0-.28.41l.15.12a10.59,10.59,0,0,0-1.85.53c-.38-.19-.64-.31-.69-.32a.25.25,0,0,0-.19.46l.29.13a3.81,3.81,0,0,0-1.74,1.59c-.79-.25-1.43-.43-1.76-.52a.25.25,0,1,0-.13.48l1.58.47c-.48.57-1.09,1.13-.32,1.41s.93-.6,1-1.18c.82.27,1.63.55,2.4.85-.51.7-1,1.28-.31,1.62.54.16.7-.76.88-1.39,1.8.73,3.16,1.46,3.16,2a6.54,6.54,0,0,1-.25.75c-.21.55-.36,1.15.47,1.15h.07c.82,0,.68-.6.47-1.15a6.54,6.54,0,0,1-.25-.75c0-.5,1.36-1.24,3.16-2,.18.63.34,1.55.88,1.39.72-.34.2-.92-.31-1.62.76-.29,1.58-.58,2.4-.85.12.58.4,1.41,1,1.18s.16-.84-.32-1.41l1.58-.47a.25.25,0,1,0-.13-.48Zm-6.38-1.44a11.15,11.15,0,0,1,1.69.42,12.87,12.87,0,0,0-1.75,1.18,4.25,4.25,0,0,0-.84-.32A6.82,6.82,0,0,1,63.34,17.71Zm-.46,2a7.24,7.24,0,0,0-1.22,1.39,8,8,0,0,1,.55-1.61A3.89,3.89,0,0,1,62.88,19.67Zm-1.46-2.14a13.09,13.09,0,0,1,1.33.1,7.22,7.22,0,0,0-.83,1.26l-.5,0Zm-.5,0v1.31l-.5,0a7.22,7.22,0,0,0-.83-1.26A13.09,13.09,0,0,1,60.92,17.53Zm-.24,3.53a7.24,7.24,0,0,0-1.22-1.39,3.89,3.89,0,0,1,.66-.22A8,8,0,0,1,60.68,21.06ZM59,17.71a6.82,6.82,0,0,1,.9,1.28,4.25,4.25,0,0,0-.84.32,12.87,12.87,0,0,0-1.75-1.18A11.15,11.15,0,0,1,59,17.71Zm-1.47,3h0l0,.08c-.89-.35-1.8-.66-2.61-.92a3.72,3.72,0,0,1,1.82-1.45,13.38,13.38,0,0,1,1.89,1.22A3.85,3.85,0,0,0,57.53,20.68Zm.42.26a3.33,3.33,0,0,1,1-1,5.62,5.62,0,0,1,1.79,2.51A12.34,12.34,0,0,0,57.95,20.94Zm2.7-1.58.27,0v.72C60.84,19.81,60.75,19.58,60.65,19.36Zm.77.7v-.72l.27,0C61.59,19.58,61.5,19.81,61.42,20.06Zm.16,2.36a5.62,5.62,0,0,1,1.79-2.51,3.33,3.33,0,0,1,1,1A12.34,12.34,0,0,0,61.58,22.43Zm3.29-1.68,0-.08h0a3.85,3.85,0,0,0-1-1.08,13.38,13.38,0,0,1,1.89-1.22,3.72,3.72,0,0,1,1.82,1.45C66.67,20.09,65.75,20.4,64.87,20.75Z"/>
<path d="M63.58,27.81c-.51-.75-1.47,0-1.47,0a3.26,3.26,0,0,0-.93-2.17v0a3.26,3.26,0,0,0-.93,2.17s-1-.75-1.47,0a2.84,2.84,0,0,0-.48,1.56,1.63,1.63,0,0,1,1.54-.67c.88.23,1.34,1.71,1.34,1.71v0s.47-1.48,1.34-1.71a1.63,1.63,0,0,1,1.54.67A2.84,2.84,0,0,0,63.58,27.81Z" style="fill: #3e5887"/>
<path d="M66.64,17.7s0,0,0-.07a.25.25,0,0,0-.33-.14l-.14.06A19.52,19.52,0,0,0,64,17.07a.23.23,0,0,0,0-.26.25.25,0,0,0-.35-.07,3.37,3.37,0,0,0-.29.23,17.43,17.43,0,0,0-1.94-.14h0a.25.25,0,0,0-.25-.25h0V50.17c4.11,0,9.73,4.16,11.12,3.71s5-10.25,5-21.92C77.31,23.46,71.87,19.32,66.64,17.7Zm.31,23.39a2.76,2.76,0,1,1,2.76-2.76A2.76,2.76,0,0,1,66.95,41.08Z" style="opacity: 0.1"/><path d="M45.01338,25.43408a1.54923,1.54923,0,0,0,.29627.4902,3.24635,3.24635,0,0,0,.53752.50888,6.9621,6.9621,0,0,0,1.355.80533,15.95606,15.95606,0,0,0,3.12695.98354,31.2388,31.2388,0,0,0,3.29146.50851c1.108.12663,2.22319.17737,3.34.23911-1.117.02158-2.23652.05426-3.35721.01031a31.60108,31.60108,0,0,1-3.36216-.26572,16.54837,16.54837,0,0,1-3.32542-.78258,7.76387,7.76387,0,0,1-1.58244-.79025,4.13713,4.13713,0,0,1-.72093-.59042,2.21345,2.21345,0,0,1-.57962-.92079.50051.50051,0,0,1,.94977-.31621q.0066.01982.01146.03975Z" style="fill: #496e22"/>
<path d="M50.88778,28.9505A2.993,2.993,0,0,1,53.7944,28.813a6.96946,6.96946,0,0,1,2.80744,2.76905,6.8864,6.8864,0,0,1-3.81388-.4343C50.81274,30.3069,50.88778,28.9505,50.88778,28.9505Z" style="fill: #496e22"/>
<path d="M53.3661,30.49615a9.80154,9.80154,0,0,0,2.115-.43079A5.24287,5.24287,0,0,0,53.79439,28.813a2.993,2.993,0,0,0-2.90662.13751s-.075,1.35638,1.90021,2.19727a6.56085,6.56085,0,0,0,1.37933.41095C53.86818,31.16845,53.3661,30.49615,53.3661,30.49615Z" style="opacity: 0.05"/>
<path d="M52.8896,30.32556a11.58568,11.58568,0,0,0,2.51746-.3385A5.15937,5.15937,0,0,0,53.79439,28.813a2.993,2.993,0,0,0-2.90662.13751s-.075,1.35638,1.90021,2.19727a6.37923,6.37923,0,0,0,.84186.28589C53.39735,31.06292,53.01747,30.467,52.8896,30.32556Z" style="opacity: 0.05"/>
<path d="M52.08095,28.53721a2.993,2.993,0,0,1,1.81978-2.27063,6.96946,6.96946,0,0,1,3.93378-.27342,6.8864,6.8864,0,0,1-2.84876,2.57271C53.04847,29.4908,52.08095,28.53721,52.08095,28.53721Z" style="fill: #496e22"/>
<path d="M54.58571,27.78436a2.45242,2.45242,0,0,0-.84106-.32635,7.79162,7.79162,0,0,0,.95947-1.46191,4.24277,4.24277,0,0,0-.80341.27051,2.9929,2.9929,0,0,0-1.81976,2.27063s.96753.95355,2.90479.02863a6.7445,6.7445,0,0,0,1.77014-1.23853A4.40367,4.40367,0,0,0,54.58571,27.78436Z" style="opacity: 0.05"/>
<path d="M54.57,28.061a5.23034,5.23034,0,0,0-1.17187-.55725,5.51092,5.51092,0,0,0,.97064-1.40857,4,4,0,0,0-.468.17139,2.9929,2.9929,0,0,0-1.81976,2.27063s.96753.95355,2.90479.02863a6.59063,6.59063,0,0,0,1.5069-1.00574A3.5679,3.5679,0,0,0,54.57,28.061Z" style="opacity: 0.05"/>
<path d="M49.12065,28.11346a2.993,2.993,0,0,1,1.76207-2.31569,6.96946,6.96946,0,0,1,3.92565-.37231A6.8864,6.8864,0,0,1,52.02525,28.069C50.11186,29.04241,49.12065,28.11346,49.12065,28.11346Z" style="fill: #496e22"/>
<path d="M50.58571,27.458a3.16463,3.16463,0,0,0-.37646-.12854,7.11937,7.11937,0,0,0,1.54205-1.83905,4.29047,4.29047,0,0,0-.86859.30737,2.993,2.993,0,0,0-1.762,2.31567s.99121.929,2.90454-.04443a6.39085,6.39085,0,0,0,.94238-.59851A4.44668,4.44668,0,0,0,50.58571,27.458Z" style="opacity: 0.05"/>
<path d="M50.53078,27.61181c-.149-.06274-.59607-.21466-.59607-.21466a6.92035,6.92035,0,0,0,1.62329-1.862,4.17167,4.17167,0,0,0-.67529.26263,2.993,2.993,0,0,0-1.762,2.31567s.99121.929,2.90454-.04443a6.37282,6.37282,0,0,0,.79858-.49048C52.24751,27.24066,50.53078,27.61181,50.53078,27.61181Z" style="opacity: 0.05"/>
<path d="M47.06631,27.65151a2.993,2.993,0,0,1,1.40557-2.54788,6.96946,6.96946,0,0,1,3.8294-.94076A6.8864,6.8864,0,0,1,49.93338,27.184C48.18238,28.426,47.06631,27.65151,47.06631,27.65151Z" style="fill: #496e22"/>
<path d="M49.15828,27.02429a2.79517,2.79517,0,0,0-.59607-.54974,6.44469,6.44469,0,0,0,2.59607-1.7804,1.30826,1.30826,0,0,0-.45734-.41895,5.45947,5.45947,0,0,0-2.22906.82843,2.993,2.993,0,0,0-1.40558,2.54785s1.11609.77454,2.86707-.46747c.03583-.02539.064-.05383.09894-.07965C49.57314,27.05383,49.15828,27.02429,49.15828,27.02429Z" style="opacity: 0.05"/>
<path d="M49.12068,27.17a4.92379,4.92379,0,0,0-.85614-.7312,7.04464,7.04464,0,0,0,2.7077-1.74854,2.27769,2.27769,0,0,0-.53778-.36938,5.25057,5.25057,0,0,0-1.96259.78278,2.993,2.993,0,0,0-1.40558,2.54785s1.07365.72116,2.74283-.382A2.96137,2.96137,0,0,0,49.12068,27.17Z" style="opacity: 0.05"/>
<path d="M48.30472,28.20536a2.993,2.993,0,0,1,2.85451.5649,6.96946,6.96946,0,0,1,2.05989,3.36247,6.8864,6.8864,0,0,1-3.59781-1.33793C47.906,29.504,48.30472,28.20536,48.30472,28.20536Z" style="fill: #496e22"/>
<g style="opacity: 0.05">
  <path d="M49.9095,30.64709a4.6989,4.6989,0,0,0,2.96936.53308,5.97137,5.97137,0,0,0-1.7196-2.40991,2.993,2.993,0,0,0-2.85455-.56488S47.906,29.504,49.62129,30.79479c.095.07153.1911.12567.2868.18976C49.90785,30.83929,49.908,30.69744,49.9095,30.64709Z" style="opacity: 0.1"/>
  <path d="M52.59883,32.05975l-1.0954-.27832A7.05752,7.05752,0,0,0,52.59883,32.05975Z" style="opacity: 0.1"/>
</g>
<path d="M49.68239,30.42748a6.75452,6.75452,0,0,0,3.1463.63678,5.8607,5.8607,0,0,0-1.66943-2.294,2.993,2.993,0,0,0-2.85455-.56488S47.906,29.504,49.62129,30.79479c.04456.03357.08972.05713.13452.089A2.09,2.09,0,0,0,49.68239,30.42748Z" style="opacity: 0.05"/>
<path d="M44.47458,25.80294a2.993,2.993,0,0,1,2.31488-1.76314,6.96946,6.96946,0,0,1,3.88314.686,6.8864,6.8864,0,0,1-3.38638,1.80741C45.18277,26.96221,44.47458,25.80294,44.47458,25.80294Z" style="fill: #496e22"/>
<path d="M46.2,25.8706a1.81991,1.81991,0,0,0-.4599-.319,2.79926,2.79926,0,0,0-1.02209-.20483,2.16111,2.16111,0,0,0-.24347.45618s.70819,1.1593,2.81165.73035a6.44013,6.44013,0,0,0,.75287-.20221A7.4833,7.4833,0,0,0,46.2,25.8706Z" style="opacity: 0.05"/>
<path d="M46.53807,27.17a2.993,2.993,0,0,1,2.40322,1.64069,6.96946,6.96946,0,0,1,.57364,3.90132,6.8864,6.8864,0,0,1-2.78316-2.64354C45.66131,28.20763,46.53807,27.17,46.53807,27.17Z" style="fill: #496e22"/>
<path d="M47.89,30.36474c.01331-.42352,0-.62744,0-.62744l.30353.04706A2.75094,2.75094,0,0,0,49.567,31.27172a5.61611,5.61611,0,0,0-.62567-2.46106A2.993,2.993,0,0,0,46.538,27.17s-.87671,1.03766.19373,2.89844a6.57224,6.57224,0,0,0,.97144,1.28149A5.17121,5.17121,0,0,0,47.89,30.36474Z" style="opacity: 0.05"/>
<path d="M47.51906,31.08416a2.82705,2.82705,0,0,0,.19513-1.50879,5.30853,5.30853,0,0,0,.55035.06952,6.93517,6.93517,0,0,0,1.29889,1.505,5.507,5.507,0,0,0-.62213-2.33923A2.993,2.993,0,0,0,46.538,27.17s-.87671,1.03766.19373,2.89844a6.4338,6.4338,0,0,0,.72058.99951A.6691.6691,0,0,0,47.51906,31.08416Z" style="opacity: 0.05"/>
<path d="M54.09676,28.89374A2.993,2.993,0,0,1,56.67934,27.553a6.96946,6.96946,0,0,1,3.70833,1.34076,6.8864,6.8864,0,0,1-3.64583,1.20091C54.596,30.15715,54.09676,28.89374,54.09676,28.89374Z" style="fill: #496e22"/>
<path d="M45.54948,26.43878a2.993,2.993,0,0,1,1.53067,2.47475A6.96946,6.96946,0,0,1,46.02128,32.712a6.8864,6.8864,0,0,1-1.471-3.5455C44.32707,27.03137,45.54948,26.43878,45.54948,26.43878Z" style="fill: #496e22"/>
<path d="M44.67555,29.91918a5.84559,5.84559,0,0,0,.36505-.58191,4.71891,4.71891,0,0,0,1.79,1.57721,5.181,5.181,0,0,0,.24951-2.001,2.993,2.993,0,0,0-1.5307-2.47473s-1.22241.59259-.99915,2.72772A6.43671,6.43671,0,0,0,44.67555,29.91918Z" style="opacity: 0.05"/>
<path d="M44.64369,29.72778a3.493,3.493,0,0,0,.35718-.67285,5.85642,5.85642,0,0,0,1.87164,1.69818,5.02157,5.02157,0,0,0,.20764-1.8396,2.993,2.993,0,0,0-1.5307-2.47473s-1.22241.59259-.99915,2.72772C44.57076,29.36224,44.60774,29.54479,44.64369,29.72778Z" style="opacity: 0.05"/>
<path d="M44.3126,25.55159a2.993,2.993,0,0,1,.68207,2.8288,6.96946,6.96946,0,0,1-2.19119,3.27842,6.8864,6.8864,0,0,1-.29125-3.82746C42.96632,25.73318,44.3126,25.55159,44.3126,25.55159Z" style="fill: #496e22"/>
<path d="M44.31258,25.55157s-.04407.00946-.10468.02618a2.35947,2.35947,0,0,0-.31238,1.327,5.12278,5.12278,0,0,0,.88092,2.1554,4.17071,4.17071,0,0,0,.21826-.67981A2.99311,2.99311,0,0,0,44.31258,25.55157Z" style="opacity: 0.05"/>
<path d="M56.23274,29.58825a4.838,4.838,0,0,0-1.52759-1.36316,2.50747,2.50747,0,0,0-.6084.66864A2.07612,2.07612,0,0,0,55.45815,29.941,2.25734,2.25734,0,0,0,56.23274,29.58825Z" style="opacity: 0.05"/>
<path d="M49.9095,28.39377a2.993,2.993,0,0,1,2.78673-.83753,6.96946,6.96946,0,0,1,3.39462,2.00646,6.8864,6.8864,0,0,1-3.80549.50256C50.16529,29.72794,49.9095,28.39377,49.9095,28.39377Z" style="fill: #496e22"/>
<path d="M50.55971,27.89007a2.51628,2.51628,0,0,0-.65021.50372s.2558,1.33417,2.37585,1.67145c.10712.017.2074.0191.31213.0304A2.63375,2.63375,0,0,0,50.55971,27.89007Z" style="opacity: 0.05"/>
<path d="M47.58072,27.69285a2.993,2.993,0,0,1,2.90566.15641,6.96946,6.96946,0,0,1,2.5138,3.03812,6.8864,6.8864,0,0,1-3.75062-.81681C47.36924,29.03476,47.58072,27.69285,47.58072,27.69285Z" style="fill: #496e22"/>
<path d="M48.7992,29.79041c.99493.08258,2.08821.0855,2.08821.0855a4.96371,4.96371,0,0,0-1.92828-2.46948,2.75951,2.75951,0,0,0-1.37842.28644A2.30362,2.30362,0,0,0,48.7992,29.79041Z" style="opacity: 0.05"/>
<path d="M45.008,26.431a2.993,2.993,0,0,1,2.90566.15641,6.96946,6.96946,0,0,1,2.5138,3.03812,6.8864,6.8864,0,0,1-3.75062-.81681C44.79656,27.7729,45.008,26.431,45.008,26.431Z" style="fill: #496e22"/>
<path d="M47.4435,27.88305a4.04819,4.04819,0,0,0-1.26019-1.74127A2.69933,2.69933,0,0,0,45.008,26.431s-.21143,1.34192,1.66888,2.37775a6.67122,6.67122,0,0,0,1.0373.4576A7.71111,7.71111,0,0,0,47.4435,27.88305Z" style="opacity: 0.05"/>
<path d="M44.36588,25.30182a2.993,2.993,0,0,1,2.416,1.62177,6.96946,6.96946,0,0,1,.60425,3.8967,6.8864,6.8864,0,0,1-2.80383-2.62161C43.49729,26.34633,44.36588,25.30182,44.36588,25.30182Z" style="fill: #496e22"/>
<path d="M78.17385,25.6302a2.21342,2.21342,0,0,1-.57962.92079,4.13724,4.13724,0,0,1-.72094.59042,7.76392,7.76392,0,0,1-1.58244.79025,16.54843,16.54843,0,0,1-3.32542.78258,31.60108,31.60108,0,0,1-3.36216.26572c-1.12069.04395-2.24022.01126-3.35721-.01031,1.11683-.06174,2.232-.11247,3.34-.23911a31.23864,31.23864,0,0,0,3.29146-.50851,15.956,15.956,0,0,0,3.12695-.98354,6.962,6.962,0,0,0,1.355-.80533,3.24637,3.24637,0,0,0,.53752-.50888,1.54926,1.54926,0,0,0,.29627-.4902l.01915-.07936a.50051.50051,0,0,1,.97311.23476C78.18225,25.603,78.17813,25.61722,78.17385,25.6302Z" style="fill: #496e22"/>
<path d="M71.31887,28.9505a2.993,2.993,0,0,0-2.90662-.13749,6.96946,6.96946,0,0,0-2.80744,2.76905,6.8864,6.8864,0,0,0,3.81388-.4343C71.3939,30.3069,71.31887,28.9505,71.31887,28.9505Z" style="fill: #496e22"/>
<path d="M68.84054,30.49615a9.80154,9.80154,0,0,1-2.115-.43079A5.24287,5.24287,0,0,1,68.41226,28.813a2.993,2.993,0,0,1,2.90662.13751s.075,1.35638-1.90021,2.19727a6.56085,6.56085,0,0,1-1.37933.41095C68.33847,31.16845,68.84054,30.49615,68.84054,30.49615Z" style="opacity: 0.05"/>
<path d="M69.317,30.32556a11.58568,11.58568,0,0,1-2.51746-.3385A5.15937,5.15937,0,0,1,68.41226,28.813a2.993,2.993,0,0,1,2.90662.13751s.075,1.35638-1.90021,2.19727a6.37923,6.37923,0,0,1-.84186.28589C68.80929,31.06292,69.18917,30.467,69.317,30.32556Z" style="opacity: 0.05"/>
<path d="M70.1257,28.53721a2.993,2.993,0,0,0-1.81978-2.27063,6.96946,6.96946,0,0,0-3.93378-.27342,6.8864,6.8864,0,0,0,2.84876,2.57271C69.15817,29.4908,70.1257,28.53721,70.1257,28.53721Z" style="fill: #496e22"/>
<path d="M67.62094,27.78436A2.45242,2.45242,0,0,1,68.462,27.458a7.79162,7.79162,0,0,1-.95947-1.46191,4.24277,4.24277,0,0,1,.80341.27051,2.9929,2.9929,0,0,1,1.81976,2.27063s-.96753.95355-2.90479.02863a6.7445,6.7445,0,0,1-1.77014-1.23853A4.40367,4.40367,0,0,1,67.62094,27.78436Z" style="opacity: 0.05"/>
<path d="M67.63668,28.061a5.23034,5.23034,0,0,1,1.17188-.55725,5.51092,5.51092,0,0,1-.97064-1.40857,4,4,0,0,1,.468.17139,2.9929,2.9929,0,0,1,1.81976,2.27063s-.96753.95355-2.90479.02863a6.59063,6.59063,0,0,1-1.5069-1.00574A3.5679,3.5679,0,0,1,67.63668,28.061Z" style="opacity: 0.05"/>
<path d="M73.086,28.11346a2.993,2.993,0,0,0-1.76207-2.31569,6.96946,6.96946,0,0,0-3.92565-.37231A6.8864,6.8864,0,0,0,70.1814,28.069C72.09478,29.04241,73.086,28.11346,73.086,28.11346Z" style="fill: #496e22"/>
<path d="M71.62094,27.458a3.16463,3.16463,0,0,1,.37646-.12854,7.11937,7.11937,0,0,1-1.54205-1.83905,4.29047,4.29047,0,0,1,.86859.30737,2.993,2.993,0,0,1,1.762,2.31567s-.99121.929-2.90454-.04443a6.39085,6.39085,0,0,1-.94238-.59851A4.44668,4.44668,0,0,1,71.62094,27.458Z" style="opacity: 0.05"/>
<path d="M71.67587,27.61181c.149-.06274.59607-.21466.59607-.21466a6.92035,6.92035,0,0,1-1.62329-1.862,4.17167,4.17167,0,0,1,.67529.26263,2.993,2.993,0,0,1,1.762,2.31567s-.99121.929-2.90454-.04443a6.37282,6.37282,0,0,1-.79858-.49048C69.95913,27.24066,71.67587,27.61181,71.67587,27.61181Z" style="opacity: 0.05"/>
<path d="M75.14034,27.65151a2.993,2.993,0,0,0-1.40557-2.54788,6.96946,6.96946,0,0,0-3.8294-.94076A6.8864,6.8864,0,0,0,72.27327,27.184C74.02426,28.426,75.14034,27.65151,75.14034,27.65151Z" style="fill: #496e22"/>
<path d="M73.04837,27.02429a2.79517,2.79517,0,0,1,.59607-.54974,6.44469,6.44469,0,0,1-2.59607-1.7804,1.30826,1.30826,0,0,1,.45734-.41895,5.45947,5.45947,0,0,1,2.22906.82843,2.993,2.993,0,0,1,1.40558,2.54785s-1.11609.77454-2.86707-.46747c-.03583-.02539-.064-.05383-.09894-.07965C72.63351,27.05383,73.04837,27.02429,73.04837,27.02429Z" style="opacity: 0.05"/>
<path d="M73.086,27.17a4.92379,4.92379,0,0,1,.85614-.7312,7.04464,7.04464,0,0,1-2.7077-1.74854,2.27769,2.27769,0,0,1,.53778-.36938,5.25057,5.25057,0,0,1,1.96259.78278,2.993,2.993,0,0,1,1.40558,2.54785s-1.07365.72116-2.74283-.382A2.96137,2.96137,0,0,1,73.086,27.17Z" style="opacity: 0.05"/>
<path d="M73.90193,28.20536a2.993,2.993,0,0,0-2.85451.5649,6.96946,6.96946,0,0,0-2.05989,3.36247,6.8864,6.8864,0,0,0,3.59781-1.33793C74.30066,29.504,73.90193,28.20536,73.90193,28.20536Z" style="fill: #496e22"/>
<g style="opacity: 0.05">
  <path d="M72.29714,30.64709a4.6989,4.6989,0,0,1-2.96936.53308,5.97137,5.97137,0,0,1,1.7196-2.40991,2.993,2.993,0,0,1,2.85455-.56488s.39874,1.29865-1.31659,2.58942c-.095.07153-.1911.12567-.2868.18976C72.29879,30.83929,72.29861,30.69744,72.29714,30.64709Z" style="opacity: 0.1"/>
  <path d="M69.60781,32.05975l1.0954-.27832A7.05752,7.05752,0,0,1,69.60781,32.05975Z" style="opacity: 0.1"/>
</g>
<path d="M72.52426,30.42748a6.75452,6.75452,0,0,1-3.1463.63678,5.8607,5.8607,0,0,1,1.66943-2.294,2.993,2.993,0,0,1,2.85455-.56488s.39874,1.29865-1.31659,2.58942c-.04456.03357-.08972.05713-.13452.089A2.09,2.09,0,0,1,72.52426,30.42748Z" style="opacity: 0.05"/>
<path d="M77.73207,25.80294a2.993,2.993,0,0,0-2.31488-1.76314,6.96946,6.96946,0,0,0-3.88314.686,6.8864,6.8864,0,0,0,3.38638,1.80741C77.02387,26.96221,77.73207,25.80294,77.73207,25.80294Z" style="fill: #496e22"/>
<path d="M76.00662,25.8706a1.81991,1.81991,0,0,1,.4599-.319,2.79926,2.79926,0,0,1,1.02209-.20483,2.16111,2.16111,0,0,1,.24347.45618s-.70819,1.1593-2.81165.73035a6.44013,6.44013,0,0,1-.75287-.20221A7.4833,7.4833,0,0,1,76.00662,25.8706Z" style="opacity: 0.05"/>
<path d="M75.66858,27.17a2.993,2.993,0,0,0-2.40322,1.64069,6.96946,6.96946,0,0,0-.57364,3.90132,6.8864,6.8864,0,0,0,2.78316-2.64354C76.54534,28.20763,75.66858,27.17,75.66858,27.17Z" style="fill: #496e22"/>
<path d="M74.31662,30.36474c-.01331-.42352,0-.62744,0-.62744l-.30353.04706a2.75094,2.75094,0,0,1-1.37341,1.48737,5.61611,5.61611,0,0,1,.62567-2.46106A2.993,2.993,0,0,1,75.6686,27.17s.87671,1.03766-.19373,2.89844a6.57224,6.57224,0,0,1-.97144,1.28149A5.17121,5.17121,0,0,1,74.31662,30.36474Z" style="opacity: 0.05"/>
<path d="M74.68759,31.08416a2.82705,2.82705,0,0,1-.19513-1.50879,5.30853,5.30853,0,0,1-.55035.06952,6.93517,6.93517,0,0,1-1.29889,1.505,5.507,5.507,0,0,1,.62213-2.33923A2.993,2.993,0,0,1,75.6686,27.17s.87671,1.03766-.19373,2.89844a6.4338,6.4338,0,0,1-.72058.99951A.6691.6691,0,0,1,74.68759,31.08416Z" style="opacity: 0.05"/>
<path d="M68.10989,28.89374A2.993,2.993,0,0,0,65.52731,27.553,6.96946,6.96946,0,0,0,61.819,28.89374a6.8864,6.8864,0,0,0,3.64583,1.20091C67.61064,30.15715,68.10989,28.89374,68.10989,28.89374Z" style="fill: #496e22"/>
<path d="M76.65716,26.43878a2.993,2.993,0,0,0-1.53067,2.47475A6.96946,6.96946,0,0,0,76.18536,32.712a6.8864,6.8864,0,0,0,1.471-3.5455C77.87957,27.03137,76.65716,26.43878,76.65716,26.43878Z" style="fill: #496e22"/>
<path d="M77.53109,29.91918a5.8456,5.8456,0,0,1-.36505-.58191,4.71891,4.71891,0,0,1-1.79,1.57721,5.181,5.181,0,0,1-.24951-2.001,2.993,2.993,0,0,1,1.5307-2.47473s1.22241.59259.99915,2.72772A6.43671,6.43671,0,0,1,77.53109,29.91918Z" style="opacity: 0.05"/>
<path d="M77.563,29.72778a3.493,3.493,0,0,1-.35718-.67285,5.85642,5.85642,0,0,1-1.87164,1.69818,5.02157,5.02157,0,0,1-.20764-1.8396,2.993,2.993,0,0,1,1.5307-2.47473s1.22241.59259.99915,2.72772C77.63589,29.36224,77.5989,29.54479,77.563,29.72778Z" style="opacity: 0.05"/>
<path d="M77.894,25.55159a2.993,2.993,0,0,0-.68207,2.8288,6.96946,6.96946,0,0,0,2.19119,3.27842,6.8864,6.8864,0,0,0,.29125-3.82746C79.24033,25.73318,77.894,25.55159,77.894,25.55159Z" style="fill: #496e22"/>
<path d="M77.89407,25.55157s.04407.00946.10468.02618a2.35947,2.35947,0,0,1,.31238,1.327,5.12278,5.12278,0,0,1-.88092,2.1554,4.17071,4.17071,0,0,1-.21826-.67981A2.99311,2.99311,0,0,1,77.89407,25.55157Z" style="opacity: 0.05"/>
<path d="M65.9739,29.58825a4.838,4.838,0,0,1,1.52759-1.36316,2.50747,2.50747,0,0,1,.6084.66864A2.07612,2.07612,0,0,1,66.7485,29.941,2.25734,2.25734,0,0,1,65.9739,29.58825Z" style="opacity: 0.05"/>
<path d="M72.29715,28.39377a2.993,2.993,0,0,0-2.78673-.83753,6.96946,6.96946,0,0,0-3.39462,2.00646,6.8864,6.8864,0,0,0,3.80549.50256C72.04135,29.72794,72.29715,28.39377,72.29715,28.39377Z" style="fill: #496e22"/>
<path d="M71.64694,27.89007a2.51628,2.51628,0,0,1,.65021.50372s-.2558,1.33417-2.37585,1.67145c-.10712.017-.2074.0191-.31213.0304A2.63375,2.63375,0,0,1,71.64694,27.89007Z" style="opacity: 0.05"/>
<path d="M74.62593,27.69285a2.993,2.993,0,0,0-2.90566.15641,6.96946,6.96946,0,0,0-2.5138,3.03812,6.8864,6.8864,0,0,0,3.75062-.81681C74.8374,29.03476,74.62593,27.69285,74.62593,27.69285Z" style="fill: #496e22"/>
<path d="M73.40745,29.79041c-.99493.08258-2.08821.0855-2.08821.0855a4.96371,4.96371,0,0,1,1.92828-2.46948,2.75951,2.75951,0,0,1,1.37842.28644A2.30362,2.30362,0,0,1,73.40745,29.79041Z" style="opacity: 0.05"/>
<path d="M77.19861,26.431a2.993,2.993,0,0,0-2.90566.15641,6.96946,6.96946,0,0,0-2.5138,3.03812,6.8864,6.8864,0,0,0,3.75062-.81681C77.41008,27.7729,77.19861,26.431,77.19861,26.431Z" style="fill: #496e22"/>
<path d="M74.76315,27.88305a4.04819,4.04819,0,0,1,1.26019-1.74127,2.69933,2.69933,0,0,1,1.17529.28918s.21143,1.34192-1.66888,2.37775a6.67122,6.67122,0,0,1-1.0373.4576A7.71111,7.71111,0,0,1,74.76315,27.88305Z" style="opacity: 0.05"/>
<path d="M77.84077,25.30182a2.993,2.993,0,0,0-2.416,1.62177,6.96946,6.96946,0,0,0-.60425,3.8967,6.8864,6.8864,0,0,0,2.80383-2.62161C78.70936,26.34633,77.84077,25.30182,77.84077,25.30182Z" style="fill: #496e22"/>
<path d="M79.69439,27.83133A2.77822,2.77822,0,0,0,78.17,25.63968l.00385-.00946c.00433-.013.00842-.02722.01172-.04077a.50048.50048,0,0,0-.3692-.60388.495.495,0,0,0-.48517.15717,3.17294,3.17294,0,0,0-1.914-1.103,6.21979,6.21979,0,0,0-3.19208.394,8.30469,8.30469,0,0,0-2.3197-.27087,6.52292,6.52292,0,0,0,.75049,1.374,7.59215,7.59215,0,0,0-3.25763-.11139,5.76938,5.76938,0,0,0,.45038.67371,7.46806,7.46806,0,0,0-3.4765-.106,6.82327,6.82327,0,0,0,1.35876,1.58167c-.06989-.00531-.13007-.02014-.20355-.02179a6.96964,6.96964,0,0,0-3.70837,1.3407,6.88638,6.88638,0,0,0,3.64587,1.20093A3.76592,3.76592,0,0,0,66.912,29.88a8.3504,8.3504,0,0,0-1.30719,1.702,6.92965,6.92965,0,0,0,3.72308-.402l-.00006.00006h.00006a8.241,8.241,0,0,0-.34033.95258,5.97748,5.97748,0,0,0,1.0733-.16705c.01807-.00433.03229-.00641.05066-.011a6.87071,6.87071,0,0,0,2.47382-1.15985c.03979-.03.06439-.05951.10193-.08948A8.22544,8.22544,0,0,0,72.6917,32.712a6.88025,6.88025,0,0,0,2.37042-2.01733c.06317-.03485.1391-.08124.22247-.1322a8.30527,8.30527,0,0,0,.90076,2.14954,6.98456,6.98456,0,0,0,1.42694-3.28094,7.99175,7.99175,0,0,0,1.79089,2.22772A6.8864,6.8864,0,0,0,79.69439,27.83133Z" style="opacity: 0.1"/></svg>