<svg id="visual" viewBox="0 0 900 600" width="900" height="600" xmlns="http://www.w3.org/2000/svg" xmlns:xlink="http://www.w3.org/1999/xlink" version="1.1"><path d="M0 483L129 483L129 462L257 462L257 470L386 470L386 476L514 476L514 472L643 472L643 455L771 455L771 447L900 447L900 493L900 601L900 601L771 601L771 601L643 601L643 601L514 601L514 601L386 601L386 601L257 601L257 601L129 601L129 601L0 601Z" fill="#fea03d"></path><path d="M0 517L129 517L129 495L257 495L257 485L386 485L386 504L514 504L514 512L643 512L643 501L771 501L771 508L900 508L900 499L900 601L900 601L771 601L771 601L643 601L643 601L514 601L514 601L386 601L386 601L257 601L257 601L129 601L129 601L0 601Z" fill="#ec6a61"></path><path d="M0 521L129 521L129 525L257 525L257 541L386 541L386 502L514 502L514 515L643 515L643 530L771 530L771 537L900 537L900 522L900 601L900 601L771 601L771 601L643 601L643 601L514 601L514 601L386 601L386 601L257 601L257 601L129 601L129 601L0 601Z" fill="#b54e79"></path><path d="M0 528L129 528L129 562L257 562L257 551L386 551L386 538L514 538L514 535L643 535L643 563L771 563L771 555L900 555L900 559L900 601L900 601L771 601L771 601L643 601L643 601L514 601L514 601L386 601L386 601L257 601L257 601L129 601L129 601L0 601Z" fill="#6b4376"></path><path d="M0 582L129 582L129 579L257 579L257 561L386 561L386 581L514 581L514 557L643 557L643 557L771 557L771 560L900 560L900 565L900 601L900 601L771 601L771 601L643 601L643 601L514 601L514 601L386 601L386 601L257 601L257 601L129 601L129 601L0 601Z" fill="#253356"></path></svg>