<?xml version="1.0" encoding="UTF-8" standalone="no"?>
<!DOCTYPE svg PUBLIC "-//W3C//DTD SVG 1.1//EN" "http://www.w3.org/Graphics/SVG/1.1/DTD/svg11.dtd">
<!-- Created with Vectornator (http://vectornator.io/) -->
<svg height="100%" stroke-miterlimit="10" style="fill-rule:nonzero;clip-rule:evenodd;stroke-linecap:round;stroke-linejoin:round;" version="1.1" viewBox="0 0 900 600" width="100%" xml:space="preserve" xmlns="http://www.w3.org/2000/svg" xmlns:xlink="http://www.w3.org/1999/xlink">
<defs/>
<g id="Untitled">
<path d="M0 118L129 118L129 139L257 139L257 131L386 131L386 125L514 125L514 129L643 129L643 146L771 146L771 154L900 154L900 108L900 0L900 0L771 0L771 0L643 0L643 0L514 0L514 0L386 0L386 0L257 0L257 0L129 0L129 0L0 0L0 118Z" fill="#fea03d" fill-rule="nonzero" opacity="1" stroke="none"/>
<path d="M0 84L129 84L129 106L257 106L257 116L386 116L386 97L514 97L514 89L643 89L643 100L771 100L771 93L900 93L900 102L900 0L900 0L771 0L771 0L643 0L643 0L514 0L514 0L386 0L386 0L257 0L257 0L129 0L129 0L0 0L0 84Z" fill="#ec6a61" fill-rule="nonzero" opacity="1" stroke="none"/>
<path d="M0 80L129 80L129 76L257 76L257 60L386 60L386 99L514 99L514 86L643 86L643 71L771 71L771 64L900 64L900 79L900 0L900 0L771 0L771 0L643 0L643 0L514 0L514 0L386 0L386 0L257 0L257 0L129 0L129 0L0 0L0 80Z" fill="#b54e79" fill-rule="nonzero" opacity="1" stroke="none"/>
<path d="M0 73L129 73L129 39L257 39L257 50L386 50L386 63L514 63L514 66L643 66L643 38L771 38L771 46L900 46L900 42L900 0L900 0L771 0L771 0L643 0L643 0L514 0L514 0L386 0L386 0L257 0L257 0L129 0L129 0L0 0L0 73Z" fill="#6b4376" fill-rule="nonzero" opacity="1" stroke="none"/>
<path d="M0 19L129 19L129 22L257 22L257 40L386 40L386 20L514 20L514 44L643 44L643 44L771 44L771 41L900 41L900 36L900 0L900 0L771 0L771 0L643 0L643 0L514 0L514 0L386 0L386 0L257 0L257 0L129 0L129 0L0 0L0 19Z" fill="#253356" fill-rule="nonzero" opacity="1" stroke="none"/>
</g>
</svg>
